NotoSansLimbu-Regular.ufo
<glyph name="doubledanda" format="2">
  <advance width="539"/>
  <unicode hex="0965"/>
  <outline>
    <contour>
      <point x="146" y="-15" type="line"/>
      <point x="227" y="20" type="line"/>
      <point x="227" y="591" type="line"/>
      <point x="146" y="557" type="line"/>
    </contour>
    <contour>
      <point x="313" y="-15" type="line"/>
      <point x="393" y="20" type="line"/>
      <point x="393" y="591" type="line"/>
      <point x="313" y="557" type="line"/>
    </contour>
  </outline>
</glyph>
<glyph name="uni1900" format="2">
  <advance width="674"/>
  <unicode hex="1900"/>
  <outline>
    <contour>
      <point x="14" y="-4" type="line"/>
      <point x="110" y="28"/>
      <point x="217" y="63"/>
      <point x="327" y="63" type="curve" smooth="yes"/>
      <point x="406" y="63"/>
      <point x="475" y="51"/>
      <point x="526" y="0" type="curve"/>
      <point x="601" y="34" type="line"/>
      <point x="601" y="576" type="line"/>
      <point x="49" y="576" type="line"/>
      <point x="24" y="504" type="line"/>
      <point x="254" y="504" type="line"/>
      <point x="47" y="271" type="line"/>
      <point x="239" y="271" type="line"/>
      <point x="5" y="15" type="line"/>
    </contour>
    <contour>
      <point x="521" y="89" type="line"/>
      <point x="484" y="114"/>
      <point x="415" y="135"/>
      <point x="336" y="135" type="curve" smooth="yes"/>
      <point x="274" y="135"/>
      <point x="197" y="121"/>
      <point x="138" y="90" type="curve"/>
      <point x="351" y="323" type="line"/>
      <point x="155" y="323" type="line"/>
      <point x="320" y="504" type="line"/>
      <point x="521" y="504" type="line"/>
    </contour>
  </outline>
</glyph>
<glyph name="uni1901" format="2">
  <advance width="605"/>
  <unicode hex="1901"/>
  <outline>
    <contour>
      <point x="43" y="0" type="line"/>
      <point x="542" y="0" type="line"/>
      <point x="566" y="72" type="line"/>
      <point x="158" y="72" type="line"/>
      <point x="251" y="215"/>
      <point x="421" y="416"/>
      <point x="556" y="542" type="curve"/>
      <point x="563" y="576" type="line"/>
      <point x="63" y="576" type="line"/>
      <point x="39" y="504" type="line"/>
      <point x="452" y="504" type="line"/>
      <point x="303" y="370"/>
      <point x="188" y="244"/>
      <point x="60" y="72" type="curve"/>
    </contour>
  </outline>
</glyph>
<glyph name="uni1902" format="2">
  <advance width="701"/>
  <unicode hex="1902"/>
  <outline>
    <contour>
      <point x="227" y="-7" type="curve" smooth="yes"/>
      <point x="313" y="-7"/>
      <point x="377" y="47"/>
      <point x="417" y="93" type="curve"/>
      <point x="438" y="32"/>
      <point x="481" y="-7"/>
      <point x="537" y="-7" type="curve" smooth="yes"/>
      <point x="606" y="-7"/>
      <point x="642" y="42"/>
      <point x="671" y="82" type="curve"/>
      <point x="649" y="104" type="line"/>
      <point x="618" y="68"/>
      <point x="599" y="65"/>
      <point x="574" y="65" type="curve" smooth="yes"/>
      <point x="525" y="65"/>
      <point x="483" y="99"/>
      <point x="483" y="203" type="curve" smooth="yes"/>
      <point x="483" y="359"/>
      <point x="555" y="440"/>
      <point x="617" y="504" type="curve"/>
      <point x="642" y="576" type="line"/>
      <point x="201" y="576" type="line"/>
      <point x="115" y="489"/>
      <point x="39" y="376"/>
      <point x="39" y="230" type="curve" smooth="yes"/>
      <point x="39" y="72"/>
      <point x="120" y="-7"/>
    </contour>
    <contour>
      <point x="252" y="65" type="curve" smooth="yes"/>
      <point x="178" y="65"/>
      <point x="121" y="111"/>
      <point x="121" y="251" type="curve" smooth="yes"/>
      <point x="121" y="334"/>
      <point x="149" y="430"/>
      <point x="206" y="504" type="curve"/>
      <point x="564" y="504" type="line"/>
      <point x="466" y="416"/>
      <point x="401" y="292"/>
      <point x="401" y="189" type="curve" smooth="yes"/>
      <point x="401" y="171"/>
      <point x="403" y="154"/>
      <point x="405" y="137" type="curve"/>
      <point x="372" y="100"/>
      <point x="323" y="65"/>
    </contour>
  </outline>
</glyph>
<glyph name="uni1903" format="2">
  <advance width="595"/>
  <unicode hex="1903"/>
  <outline>
    <contour>
      <point x="303" y="-7" type="curve" smooth="yes"/>
      <point x="441" y="-7"/>
      <point x="498" y="84"/>
      <point x="498" y="165" type="curve" smooth="yes"/>
      <point x="498" y="217"/>
      <point x="475" y="291"/>
      <point x="360" y="331" type="curve"/>
      <point x="429" y="392"/>
      <point x="505" y="469"/>
      <point x="556" y="576" type="curve"/>
      <point x="495" y="576" type="line"/>
      <point x="443" y="479"/>
      <point x="368" y="407"/>
      <point x="299" y="346" type="curve"/>
      <point x="259" y="354"/>
      <point x="211" y="358"/>
      <point x="155" y="358" type="curve" smooth="yes"/>
      <point x="153" y="358"/>
      <point x="150" y="358"/>
      <point x="146" y="358" type="curve"/>
      <point x="251" y="544" type="line"/>
      <point x="260" y="576" type="line"/>
      <point x="49" y="576" type="line"/>
      <point x="24" y="504" type="line"/>
      <point x="181" y="504" type="line"/>
      <point x="73" y="312" type="line"/>
      <point x="67" y="281" type="line"/>
      <point x="84" y="284"/>
      <point x="106" y="286"/>
      <point x="122" y="286" type="curve" smooth="yes"/>
      <point x="161" y="286"/>
      <point x="194" y="284"/>
      <point x="224" y="281" type="curve"/>
      <point x="165" y="229"/>
      <point x="123" y="182"/>
      <point x="123" y="127" type="curve" smooth="yes"/>
      <point x="123" y="44"/>
      <point x="179" y="-7"/>
    </contour>
    <contour>
      <point x="296" y="65" type="curve" smooth="yes"/>
      <point x="226" y="65"/>
      <point x="187" y="98"/>
      <point x="187" y="140" type="curve" smooth="yes"/>
      <point x="187" y="182"/>
      <point x="230" y="221"/>
      <point x="289" y="271" type="curve"/>
      <point x="399" y="245"/>
      <point x="416" y="194"/>
      <point x="416" y="165" type="curve" smooth="yes"/>
      <point x="416" y="94"/>
      <point x="359" y="65"/>
    </contour>
  </outline>
</glyph>
<glyph name="uni1904" format="2">
  <advance width="602"/>
  <unicode hex="1904"/>
  <outline>
    <contour>
      <point x="449" y="-5" type="line"/>
      <point x="529" y="20" type="line"/>
      <point x="529" y="576" type="line"/>
      <point x="49" y="576" type="line"/>
      <point x="24" y="504" type="line"/>
      <point x="104" y="504" type="line"/>
      <point x="104" y="346" type="line" smooth="yes"/>
      <point x="104" y="200"/>
      <point x="177" y="162"/>
      <point x="258" y="162" type="curve" smooth="yes"/>
      <point x="342" y="162"/>
      <point x="408" y="210"/>
      <point x="449" y="252" type="curve"/>
    </contour>
    <contour>
      <point x="290" y="234" type="curve" smooth="yes"/>
      <point x="243" y="234"/>
      <point x="184" y="239"/>
      <point x="184" y="366" type="curve" smooth="yes"/>
      <point x="184" y="504" type="line"/>
      <point x="449" y="504" type="line"/>
      <point x="449" y="306" type="line"/>
      <point x="416" y="268"/>
      <point x="366" y="234"/>
    </contour>
  </outline>
</glyph>
<glyph name="uni1905" format="2">
  <advance width="927"/>
  <unicode hex="1905"/>
  <outline>
    <contour>
      <point x="420" y="-7" type="curve" smooth="yes"/>
      <point x="601" y="-7"/>
      <point x="685" y="88"/>
      <point x="685" y="206" type="curve" smooth="yes"/>
      <point x="685" y="326"/>
      <point x="553" y="373"/>
      <point x="438" y="373" type="curve"/>
      <point x="616" y="542" type="line"/>
      <point x="623" y="576" type="line"/>
      <point x="194" y="576" type="line"/>
      <point x="169" y="504" type="line"/>
      <point x="512" y="504" type="line"/>
      <point x="355" y="354" type="line"/>
      <point x="351" y="321" type="line"/>
      <point x="379" y="322"/>
      <point x="389" y="324"/>
      <point x="402" y="324" type="curve" smooth="yes"/>
      <point x="528" y="324"/>
      <point x="603" y="287"/>
      <point x="603" y="206" type="curve" smooth="yes"/>
      <point x="603" y="85"/>
      <point x="493" y="65"/>
      <point x="406" y="65" type="curve" smooth="yes"/>
      <point x="259" y="65"/>
      <point x="89" y="188"/>
      <point x="89" y="438" type="curve" smooth="yes"/>
      <point x="89" y="480"/>
      <point x="91" y="499"/>
      <point x="95" y="517" type="curve"/>
      <point x="46" y="531" type="line"/>
      <point x="42" y="507"/>
      <point x="39" y="477"/>
      <point x="39" y="433" type="curve" smooth="yes"/>
      <point x="39" y="168"/>
      <point x="206" y="-7"/>
    </contour>
    <contour>
      <point x="780" y="344" type="curve" smooth="yes"/>
      <point x="859" y="344"/>
      <point x="897" y="405"/>
      <point x="897" y="470" type="curve" smooth="yes"/>
      <point x="897" y="536"/>
      <point x="854" y="583"/>
      <point x="783" y="583" type="curve" smooth="yes"/>
      <point x="707" y="583"/>
      <point x="658" y="529"/>
      <point x="658" y="463" type="curve" smooth="yes"/>
      <point x="658" y="398"/>
      <point x="708" y="344"/>
    </contour>
    <contour>
      <point x="785" y="404" type="curve" smooth="yes"/>
      <point x="747" y="404"/>
      <point x="721" y="428"/>
      <point x="721" y="465" type="curve" smooth="yes"/>
      <point x="721" y="505"/>
      <point x="740" y="536"/>
      <point x="786" y="536" type="curve" smooth="yes"/>
      <point x="820" y="536"/>
      <point x="847" y="515"/>
      <point x="847" y="475" type="curve" smooth="yes"/>
      <point x="847" y="438"/>
      <point x="830" y="404"/>
    </contour>
  </outline>
</glyph>
<glyph name="uni1906" format="2">
  <advance width="627"/>
  <unicode hex="1906"/>
  <outline>
    <contour>
      <point x="139" y="42" type="curve" smooth="yes"/>
      <point x="281" y="42"/>
      <point x="385" y="186"/>
      <point x="385" y="332" type="curve" smooth="yes"/>
      <point x="385" y="484"/>
      <point x="277" y="576"/>
      <point x="101" y="576" type="curve" smooth="yes"/>
      <point x="49" y="576" type="line"/>
      <point x="24" y="504" type="line"/>
      <point x="93" y="504" type="line" smooth="yes"/>
      <point x="240" y="504"/>
      <point x="303" y="431"/>
      <point x="303" y="305" type="curve" smooth="yes"/>
      <point x="303" y="255"/>
      <point x="297" y="185"/>
      <point x="250" y="139" type="curve"/>
      <point x="250" y="143"/>
      <point x="252" y="155"/>
      <point x="252" y="159" type="curve" smooth="yes"/>
      <point x="252" y="214"/>
      <point x="212" y="263"/>
      <point x="144" y="263" type="curve" smooth="yes"/>
      <point x="81" y="263"/>
      <point x="29" y="211"/>
      <point x="29" y="152" type="curve" smooth="yes"/>
      <point x="29" y="82"/>
      <point x="85" y="42"/>
    </contour>
    <contour>
      <point x="151" y="109" type="curve" smooth="yes"/>
      <point x="119" y="109"/>
      <point x="101" y="129"/>
      <point x="101" y="160" type="curve" smooth="yes"/>
      <point x="101" y="183"/>
      <point x="118" y="210"/>
      <point x="150" y="210" type="curve" smooth="yes"/>
      <point x="177" y="210"/>
      <point x="200" y="192"/>
      <point x="200" y="160" type="curve" smooth="yes"/>
      <point x="200" y="127"/>
      <point x="175" y="109"/>
    </contour>
    <contour>
      <point x="474" y="-5" type="line"/>
      <point x="554" y="20" type="line"/>
      <point x="554" y="581" type="line"/>
      <point x="474" y="557" type="line"/>
    </contour>
  </outline>
</glyph>
<glyph name="uni1907" format="2">
  <advance width="632"/>
  <unicode hex="1907"/>
  <outline>
    <contour>
      <point x="308" y="-7" type="curve" smooth="yes"/>
      <point x="461" y="-7"/>
      <point x="570" y="100"/>
      <point x="603" y="146" type="curve"/>
      <point x="575" y="171" type="line"/>
      <point x="480" y="83"/>
      <point x="396" y="65"/>
      <point x="306" y="65" type="curve" smooth="yes"/>
      <point x="182" y="65"/>
      <point x="123" y="135"/>
      <point x="123" y="234" type="curve" smooth="yes"/>
      <point x="123" y="261"/>
      <point x="126" y="288"/>
      <point x="135" y="313" type="curve"/>
      <point x="327" y="313" type="line"/>
      <point x="248" y="212" type="line"/>
      <point x="245" y="192" type="line"/>
      <point x="446" y="192" type="line"/>
      <point x="488" y="264" type="line"/>
      <point x="347" y="264" type="line"/>
      <point x="426" y="366" type="line"/>
      <point x="428" y="386" type="line"/>
      <point x="171" y="386" type="line"/>
      <point x="202" y="429"/>
      <point x="250" y="469"/>
      <point x="317" y="504" type="curve"/>
      <point x="576" y="504" type="line"/>
      <point x="601" y="576" type="line"/>
      <point x="63" y="576" type="line"/>
      <point x="39" y="504" type="line"/>
      <point x="230" y="504" type="line"/>
      <point x="101" y="434"/>
      <point x="39" y="326"/>
      <point x="39" y="226" type="curve" smooth="yes"/>
      <point x="39" y="106"/>
      <point x="117" y="-7"/>
    </contour>
  </outline>
</glyph>
<glyph name="uni1908" format="2">
  <advance width="675"/>
  <unicode hex="1908"/>
  <outline>
    <contour>
      <point x="522" y="-5" type="line"/>
      <point x="602" y="20" type="line"/>
      <point x="602" y="576" type="line"/>
      <point x="49" y="576" type="line"/>
      <point x="24" y="504" type="line"/>
      <point x="522" y="504" type="line"/>
    </contour>
    <contour>
      <point x="267" y="92" type="curve" smooth="yes"/>
      <point x="362" y="92"/>
      <point x="457" y="149"/>
      <point x="457" y="270" type="curve" smooth="yes"/>
      <point x="457" y="357"/>
      <point x="413" y="434"/>
      <point x="203" y="434" type="curve" smooth="yes"/>
      <point x="73" y="434" type="line"/>
      <point x="49" y="362" type="line"/>
      <point x="176" y="362" type="line" smooth="yes"/>
      <point x="323" y="362"/>
      <point x="375" y="342"/>
      <point x="375" y="253" type="curve" smooth="yes"/>
      <point x="375" y="203"/>
      <point x="352" y="140"/>
      <point x="265" y="140" type="curve" smooth="yes"/>
      <point x="245" y="140"/>
      <point x="239" y="146"/>
      <point x="233" y="152" type="curve"/>
      <point x="255" y="157"/>
      <point x="285" y="176"/>
      <point x="285" y="217" type="curve" smooth="yes"/>
      <point x="285" y="256"/>
      <point x="255" y="285"/>
      <point x="217" y="285" type="curve" smooth="yes"/>
      <point x="180" y="285"/>
      <point x="144" y="254"/>
      <point x="144" y="205" type="curve" smooth="yes"/>
      <point x="144" y="138"/>
      <point x="198" y="92"/>
    </contour>
  </outline>
</glyph>
<glyph name="uni1909" format="2">
  <advance width="583"/>
  <unicode hex="1909"/>
  <outline>
    <contour>
      <point x="179" y="-156" type="line"/>
      <point x="304" y="-125"/>
      <point x="470" y="-31"/>
      <point x="544" y="82" type="curve"/>
      <point x="513" y="113" type="line"/>
      <point x="447" y="77"/>
      <point x="376" y="65"/>
      <point x="303" y="65" type="curve" smooth="yes"/>
      <point x="199" y="65"/>
      <point x="121" y="88"/>
      <point x="121" y="162" type="curve" smooth="yes"/>
      <point x="121" y="203"/>
      <point x="147" y="236"/>
      <point x="190" y="258" type="curve"/>
      <point x="207" y="256"/>
      <point x="224" y="255"/>
      <point x="243" y="255" type="curve" smooth="yes"/>
      <point x="334" y="255"/>
      <point x="421" y="289"/>
      <point x="476" y="321" type="curve"/>
      <point x="452" y="353" type="line"/>
      <point x="414" y="334"/>
      <point x="337" y="319"/>
      <point x="259" y="319" type="curve" smooth="yes"/>
      <point x="182" y="319"/>
      <point x="121" y="352"/>
      <point x="121" y="406" type="curve" smooth="yes"/>
      <point x="121" y="470"/>
      <point x="176" y="504"/>
      <point x="275" y="504" type="curve" smooth="yes"/>
      <point x="461" y="504" type="line"/>
      <point x="485" y="576" type="line"/>
      <point x="288" y="576" type="line" smooth="yes"/>
      <point x="144" y="576"/>
      <point x="39" y="473"/>
      <point x="39" y="391" type="curve" smooth="yes"/>
      <point x="39" y="334"/>
      <point x="65" y="291"/>
      <point x="130" y="270" type="curve"/>
      <point x="81" y="239"/>
      <point x="39" y="191"/>
      <point x="39" y="141" type="curve" smooth="yes"/>
      <point x="39" y="60"/>
      <point x="89" y="-7"/>
      <point x="272" y="-7" type="curve" smooth="yes"/>
      <point x="313" y="-7"/>
      <point x="355" y="0"/>
      <point x="395" y="10" type="curve"/>
      <point x="329" y="-42"/>
      <point x="229" y="-93"/>
      <point x="159" y="-117" type="curve"/>
    </contour>
  </outline>
</glyph>
<glyph name="uni190A" format="2">
  <advance width="777"/>
  <unicode hex="190A"/>
  <outline>
    <contour>
      <point x="217" y="-7" type="curve" smooth="yes"/>
      <point x="375" y="-7"/>
      <point x="439" y="114"/>
      <point x="439" y="232" type="curve" smooth="yes"/>
      <point x="439" y="281" type="line"/>
      <point x="492" y="253"/>
      <point x="541" y="213"/>
      <point x="584" y="164" type="curve"/>
      <point x="549" y="109"/>
      <point x="509" y="61"/>
      <point x="472" y="29" type="curve"/>
      <point x="504" y="-2" type="line"/>
      <point x="543" y="29"/>
      <point x="584" y="70"/>
      <point x="622" y="116" type="curve"/>
      <point x="648" y="80"/>
      <point x="672" y="40"/>
      <point x="693" y="-2" type="curve"/>
      <point x="738" y="25" type="line"/>
      <point x="718" y="74"/>
      <point x="691" y="122"/>
      <point x="659" y="167" type="curve"/>
      <point x="695" y="219"/>
      <point x="723" y="276"/>
      <point x="732" y="331" type="curve"/>
      <point x="667" y="355" type="line"/>
      <point x="658" y="313"/>
      <point x="640" y="266"/>
      <point x="617" y="221" type="curve"/>
      <point x="565" y="280"/>
      <point x="504" y="329"/>
      <point x="439" y="359" type="curve"/>
      <point x="439" y="504" type="line"/>
      <point x="605" y="504" type="line"/>
      <point x="630" y="576" type="line"/>
      <point x="71" y="576" type="line"/>
      <point x="46" y="504" type="line"/>
      <point x="359" y="504" type="line"/>
      <point x="359" y="387" type="line"/>
      <point x="338" y="392"/>
      <point x="316" y="394"/>
      <point x="294" y="394" type="curve" smooth="yes"/>
      <point x="173" y="394"/>
      <point x="39" y="328"/>
      <point x="39" y="167" type="curve" smooth="yes"/>
      <point x="39" y="62"/>
      <point x="118" y="-7"/>
    </contour>
    <contour>
      <point x="214" y="65" type="curve" smooth="yes"/>
      <point x="131" y="65"/>
      <point x="89" y="110"/>
      <point x="89" y="175" type="curve" smooth="yes"/>
      <point x="89" y="267"/>
      <point x="160" y="322"/>
      <point x="284" y="322" type="curve" smooth="yes"/>
      <point x="309" y="322"/>
      <point x="334" y="318"/>
      <point x="359" y="312" type="curve"/>
      <point x="359" y="217" type="line" smooth="yes"/>
      <point x="359" y="102"/>
      <point x="281" y="65"/>
    </contour>
  </outline>
</glyph>
<glyph name="uni190B" format="2">
  <advance width="553"/>
  <unicode hex="190B"/>
  <outline>
    <contour>
      <point x="257" y="-7" type="curve" smooth="yes"/>
      <point x="390" y="-7"/>
      <point x="514" y="69"/>
      <point x="514" y="190" type="curve" smooth="yes"/>
      <point x="514" y="248"/>
      <point x="484" y="301"/>
      <point x="410" y="331" type="curve"/>
      <point x="450" y="358"/>
      <point x="473" y="393"/>
      <point x="473" y="440" type="curve" smooth="yes"/>
      <point x="473" y="516"/>
      <point x="414" y="583"/>
      <point x="271" y="583" type="curve" smooth="yes"/>
      <point x="154" y="583"/>
      <point x="83" y="521"/>
      <point x="41" y="471" type="curve"/>
      <point x="66" y="444" type="line"/>
      <point x="119" y="492"/>
      <point x="187" y="511"/>
      <point x="262" y="511" type="curve" smooth="yes"/>
      <point x="341" y="511"/>
      <point x="389" y="483"/>
      <point x="389" y="432" type="curve" smooth="yes"/>
      <point x="389" y="394"/>
      <point x="375" y="368"/>
      <point x="348" y="347" type="curve"/>
      <point x="323" y="352"/>
      <point x="293" y="354"/>
      <point x="261" y="354" type="curve" smooth="yes"/>
      <point x="189" y="354" type="line"/>
      <point x="165" y="282" type="line"/>
      <point x="234" y="282" type="line" smooth="yes"/>
      <point x="360" y="282"/>
      <point x="432" y="262"/>
      <point x="432" y="173" type="curve" smooth="yes"/>
      <point x="432" y="84"/>
      <point x="345" y="41"/>
      <point x="258" y="41" type="curve" smooth="yes"/>
      <point x="178" y="41"/>
      <point x="101" y="73"/>
      <point x="61" y="114" type="curve"/>
      <point x="29" y="77" type="line"/>
      <point x="79" y="28"/>
      <point x="170" y="-7"/>
    </contour>
  </outline>
</glyph>
<glyph name="uni190C" format="2">
  <advance width="691"/>
  <unicode hex="190C"/>
  <outline>
    <contour>
      <point x="217" y="-7" type="curve" smooth="yes"/>
      <point x="375" y="-7"/>
      <point x="439" y="114"/>
      <point x="439" y="232" type="curve" smooth="yes"/>
      <point x="439" y="305" type="line"/>
      <point x="590" y="289"/>
      <point x="612" y="204"/>
      <point x="612" y="170" type="curve" smooth="yes"/>
      <point x="612" y="80"/>
      <point x="548" y="48"/>
      <point x="506" y="36" type="curve"/>
      <point x="523" y="-7" type="line"/>
      <point x="625" y="27"/>
      <point x="662" y="102"/>
      <point x="662" y="177" type="curve" smooth="yes"/>
      <point x="662" y="299"/>
      <point x="578" y="365"/>
      <point x="439" y="377" type="curve"/>
      <point x="439" y="576" type="line"/>
      <point x="71" y="576" type="line"/>
      <point x="46" y="504" type="line"/>
      <point x="359" y="504" type="line"/>
      <point x="359" y="379" type="line"/>
      <point x="174" y="372"/>
      <point x="39" y="295"/>
      <point x="39" y="161" type="curve" smooth="yes"/>
      <point x="39" y="55"/>
      <point x="118" y="-7"/>
    </contour>
    <contour>
      <point x="214" y="65" type="curve" smooth="yes"/>
      <point x="121" y="65"/>
      <point x="89" y="119"/>
      <point x="89" y="161" type="curve" smooth="yes"/>
      <point x="89" y="247"/>
      <point x="185" y="301"/>
      <point x="359" y="307" type="curve"/>
      <point x="359" y="217" type="line" smooth="yes"/>
      <point x="359" y="102"/>
      <point x="281" y="65"/>
    </contour>
  </outline>
</glyph>
<glyph name="uni190D" format="2">
  <advance width="625"/>
  <unicode hex="190D"/>
  <outline>
    <contour>
      <point x="317" y="-7" type="curve" smooth="yes"/>
      <point x="483" y="-7"/>
      <point x="586" y="77"/>
      <point x="586" y="197" type="curve" smooth="yes"/>
      <point x="586" y="324"/>
      <point x="479" y="374"/>
      <point x="360" y="374" type="curve" smooth="yes"/>
      <point x="337" y="374"/>
      <point x="300" y="370"/>
      <point x="280" y="363" type="curve"/>
      <point x="289" y="448" type="line"/>
      <point x="421" y="448"/>
      <point x="535" y="469"/>
      <point x="585" y="509" type="curve"/>
      <point x="585" y="581" type="line"/>
      <point x="512" y="530"/>
      <point x="376" y="520"/>
      <point x="296" y="520" type="curve" smooth="yes"/>
      <point x="199" y="520"/>
      <point x="94" y="537"/>
      <point x="20" y="581" type="curve"/>
      <point x="20" y="509" type="line"/>
      <point x="61" y="479"/>
      <point x="135" y="456"/>
      <point x="238" y="449" type="curve"/>
      <point x="223" y="319" type="line"/>
      <point x="232" y="310" type="line"/>
      <point x="259" y="320"/>
      <point x="292" y="326"/>
      <point x="346" y="326" type="curve" smooth="yes"/>
      <point x="464" y="326"/>
      <point x="502" y="259"/>
      <point x="502" y="205" type="curve" smooth="yes"/>
      <point x="502" y="106"/>
      <point x="426" y="65"/>
      <point x="319" y="65" type="curve" smooth="yes"/>
      <point x="229" y="65"/>
      <point x="145" y="83"/>
      <point x="50" y="171" type="curve"/>
      <point x="22" y="146" type="line"/>
      <point x="55" y="100"/>
      <point x="164" y="-7"/>
    </contour>
  </outline>
</glyph>
<glyph name="uni190E" format="2">
  <advance width="680"/>
  <unicode hex="190E"/>
  <outline>
    <contour>
      <point x="245" y="-7" type="curve" smooth="yes"/>
      <point x="487" y="-7"/>
      <point x="534" y="202"/>
      <point x="545" y="321" type="curve" smooth="yes"/>
      <point x="555" y="425"/>
      <point x="589" y="490"/>
      <point x="641" y="549" type="curve"/>
      <point x="609" y="576" type="line"/>
      <point x="537" y="497"/>
      <point x="495" y="425"/>
      <point x="480" y="349" type="curve" smooth="yes"/>
      <point x="450" y="198"/>
      <point x="480" y="65"/>
      <point x="269" y="65" type="curve" smooth="yes"/>
      <point x="200" y="65"/>
      <point x="146" y="90"/>
      <point x="146" y="164" type="curve" smooth="yes"/>
      <point x="146" y="195"/>
      <point x="159" y="235"/>
      <point x="226" y="274" type="curve"/>
      <point x="271" y="279"/>
      <point x="328" y="299"/>
      <point x="374" y="334" type="curve"/>
      <point x="357" y="363" type="line"/>
      <point x="330" y="352"/>
      <point x="279" y="346"/>
      <point x="245" y="346" type="curve" smooth="yes"/>
      <point x="183" y="346"/>
      <point x="146" y="375"/>
      <point x="146" y="420" type="curve" smooth="yes"/>
      <point x="146" y="458"/>
      <point x="158" y="479"/>
      <point x="181" y="504" type="curve"/>
      <point x="381" y="504" type="line"/>
      <point x="405" y="576" type="line"/>
      <point x="49" y="576" type="line"/>
      <point x="24" y="504" type="line"/>
      <point x="126" y="504" type="line"/>
      <point x="84" y="465"/>
      <point x="63" y="427"/>
      <point x="63" y="390" type="curve" smooth="yes"/>
      <point x="63" y="334"/>
      <point x="109" y="294"/>
      <point x="162" y="279" type="curve"/>
      <point x="109" y="246"/>
      <point x="63" y="192"/>
      <point x="63" y="142" type="curve" smooth="yes"/>
      <point x="63" y="47"/>
      <point x="146" y="-7"/>
    </contour>
  </outline>
</glyph>
<glyph name="uni190F" format="2">
  <advance width="605"/>
  <unicode hex="190F"/>
  <outline>
    <contour>
      <point x="43" y="0" type="line"/>
      <point x="542" y="0" type="line"/>
      <point x="566" y="72" type="line"/>
      <point x="158" y="72" type="line"/>
      <point x="198" y="133"/>
      <point x="252" y="205"/>
      <point x="312" y="277" type="curve"/>
      <point x="510" y="277" type="line"/>
      <point x="534" y="330" type="line"/>
      <point x="355" y="330" type="line"/>
      <point x="422" y="408"/>
      <point x="493" y="483"/>
      <point x="556" y="542" type="curve"/>
      <point x="563" y="576" type="line"/>
      <point x="63" y="576" type="line"/>
      <point x="39" y="504" type="line"/>
      <point x="452" y="504" type="line"/>
      <point x="303" y="370"/>
      <point x="188" y="244"/>
      <point x="60" y="72" type="curve"/>
    </contour>
  </outline>
</glyph>
<glyph name="uni1910" format="2">
  <advance width="747"/>
  <unicode hex="1910"/>
  <outline>
    <contour>
      <point x="219" y="-7" type="curve" smooth="yes"/>
      <point x="275" y="-7"/>
      <point x="321" y="23"/>
      <point x="354" y="63" type="curve"/>
      <point x="385" y="16"/>
      <point x="438" y="-7"/>
      <point x="497" y="-7" type="curve" smooth="yes"/>
      <point x="603" y="-7"/>
      <point x="708" y="134"/>
      <point x="708" y="280" type="curve" smooth="yes"/>
      <point x="708" y="421"/>
      <point x="650" y="535"/>
      <point x="543" y="583" type="curve"/>
      <point x="496" y="519" type="line"/>
      <point x="613" y="458"/>
      <point x="626" y="335"/>
      <point x="626" y="244" type="curve" smooth="yes"/>
      <point x="626" y="149"/>
      <point x="598" y="65"/>
      <point x="505" y="65" type="curve" smooth="yes"/>
      <point x="476" y="65"/>
      <point x="404" y="82"/>
      <point x="404" y="185" type="curve" smooth="yes"/>
      <point x="404" y="249" type="line"/>
      <point x="324" y="225" type="line"/>
      <point x="324" y="171" type="line" smooth="yes"/>
      <point x="324" y="149"/>
      <point x="327" y="129"/>
      <point x="332" y="110" type="curve"/>
      <point x="306" y="82"/>
      <point x="272" y="65"/>
      <point x="234" y="65" type="curve" smooth="yes"/>
      <point x="176" y="65"/>
      <point x="121" y="121"/>
      <point x="121" y="261" type="curve" smooth="yes"/>
      <point x="121" y="415"/>
      <point x="197" y="516"/>
      <point x="249" y="552" type="curve"/>
      <point x="228" y="581" type="line"/>
      <point x="128" y="518"/>
      <point x="39" y="391"/>
      <point x="39" y="245" type="curve" smooth="yes"/>
      <point x="39" y="86"/>
      <point x="112" y="-7"/>
    </contour>
  </outline>
</glyph>
<glyph name="uni1911" format="2">
  <advance width="811"/>
  <unicode hex="1911"/>
  <outline>
    <contour>
      <point x="204" y="-7" type="curve" smooth="yes"/>
      <point x="299" y="-7"/>
      <point x="346" y="88"/>
      <point x="384" y="197" type="curve"/>
      <point x="417" y="88"/>
      <point x="462" y="-7"/>
      <point x="569" y="-7" type="curve" smooth="yes"/>
      <point x="681" y="-7"/>
      <point x="771" y="165"/>
      <point x="771" y="311" type="curve" smooth="yes"/>
      <point x="771" y="483"/>
      <point x="714" y="583"/>
      <point x="596" y="583" type="curve" smooth="yes"/>
      <point x="504" y="583"/>
      <point x="449" y="509"/>
      <point x="408" y="417" type="curve"/>
      <point x="376" y="509"/>
      <point x="332" y="583"/>
      <point x="244" y="583" type="curve" smooth="yes"/>
      <point x="160" y="583"/>
      <point x="86" y="515"/>
      <point x="58" y="425" type="curve"/>
      <point x="114" y="411" type="line"/>
      <point x="125" y="481"/>
      <point x="158" y="516"/>
      <point x="207" y="516" type="curve" smooth="yes"/>
      <point x="298" y="516"/>
      <point x="329" y="407"/>
      <point x="359" y="289" type="curve"/>
      <point x="319" y="174"/>
      <point x="284" y="69"/>
      <point x="215" y="69" type="curve" smooth="yes"/>
      <point x="139" y="69"/>
      <point x="127" y="148"/>
      <point x="122" y="221" type="curve"/>
      <point x="39" y="232" type="line"/>
      <point x="41" y="91"/>
      <point x="96" y="-7"/>
    </contour>
    <contour>
      <point x="589" y="65" type="curve" smooth="yes"/>
      <point x="495" y="65"/>
      <point x="462" y="228"/>
      <point x="444" y="294" type="curve" smooth="yes"/>
      <point x="432" y="339" type="line"/>
      <point x="465" y="434"/>
      <point x="503" y="511"/>
      <point x="575" y="511" type="curve" smooth="yes"/>
      <point x="624" y="511"/>
      <point x="689" y="459"/>
      <point x="689" y="281" type="curve" smooth="yes"/>
      <point x="689" y="153"/>
      <point x="667" y="65"/>
    </contour>
  </outline>
</glyph>
<glyph name="uni1912" format="2">
  <advance width="615"/>
  <unicode hex="1912"/>
  <outline>
    <contour>
      <point x="306" y="-7" type="curve" smooth="yes"/>
      <point x="428" y="-7"/>
      <point x="576" y="65"/>
      <point x="576" y="197" type="curve" smooth="yes"/>
      <point x="576" y="258"/>
      <point x="523" y="308"/>
      <point x="462" y="308" type="curve" smooth="yes"/>
      <point x="401" y="308"/>
      <point x="353" y="265"/>
      <point x="353" y="204" type="curve" smooth="yes"/>
      <point x="353" y="151"/>
      <point x="388" y="102"/>
      <point x="436" y="90" type="curve"/>
      <point x="393" y="70"/>
      <point x="344" y="65"/>
      <point x="305" y="65" type="curve" smooth="yes"/>
      <point x="228" y="65"/>
      <point x="111" y="106"/>
      <point x="111" y="238" type="curve" smooth="yes"/>
      <point x="111" y="375"/>
      <point x="209" y="462"/>
      <point x="328" y="504" type="curve"/>
      <point x="533" y="504" type="line"/>
      <point x="557" y="576" type="line"/>
      <point x="54" y="576" type="line"/>
      <point x="29" y="504" type="line"/>
      <point x="239" y="504" type="line"/>
      <point x="142" y="458"/>
      <point x="29" y="361"/>
      <point x="29" y="234" type="curve" smooth="yes"/>
      <point x="29" y="90"/>
      <point x="123" y="-7"/>
    </contour>
    <contour>
      <point x="457" y="154" type="curve" smooth="yes"/>
      <point x="425" y="154"/>
      <point x="405" y="176"/>
      <point x="405" y="208" type="curve" smooth="yes"/>
      <point x="405" y="232"/>
      <point x="423" y="255"/>
      <point x="456" y="255" type="curve" smooth="yes"/>
      <point x="488" y="255"/>
      <point x="504" y="229"/>
      <point x="504" y="205" type="curve" smooth="yes"/>
      <point x="504" y="179"/>
      <point x="489" y="154"/>
    </contour>
  </outline>
</glyph>
<glyph name="uni1913" format="2">
  <advance width="700"/>
  <unicode hex="1913"/>
  <outline>
    <contour>
      <point x="547" y="-5" type="line"/>
      <point x="627" y="20" type="line"/>
      <point x="627" y="581" type="line"/>
      <point x="547" y="557" type="line"/>
      <point x="547" y="260" type="line"/>
      <point x="490" y="205"/>
      <point x="434" y="197"/>
      <point x="408" y="197" type="curve" smooth="yes"/>
      <point x="364" y="197"/>
      <point x="319" y="216"/>
      <point x="319" y="270" type="curve" smooth="yes"/>
      <point x="319" y="337"/>
      <point x="424" y="403"/>
      <point x="424" y="469" type="curve" smooth="yes"/>
      <point x="424" y="543"/>
      <point x="369" y="583"/>
      <point x="278" y="583" type="curve" smooth="yes"/>
      <point x="162" y="583"/>
      <point x="29" y="446"/>
      <point x="29" y="304" type="curve" smooth="yes"/>
      <point x="29" y="190"/>
      <point x="93" y="125"/>
      <point x="202" y="125" type="curve" smooth="yes"/>
      <point x="241" y="125"/>
      <point x="271" y="135"/>
      <point x="296" y="149" type="curve"/>
      <point x="323" y="133"/>
      <point x="356" y="125"/>
      <point x="392" y="125" type="curve" smooth="yes"/>
      <point x="463" y="125"/>
      <point x="510" y="165"/>
      <point x="547" y="205" type="curve"/>
    </contour>
    <contour>
      <point x="218" y="197" type="curve" smooth="yes"/>
      <point x="118" y="197"/>
      <point x="97" y="272"/>
      <point x="97" y="335" type="curve" smooth="yes"/>
      <point x="97" y="426"/>
      <point x="152" y="509"/>
      <point x="257" y="509" type="curve" smooth="yes"/>
      <point x="310" y="509"/>
      <point x="342" y="488"/>
      <point x="342" y="451" type="curve" smooth="yes"/>
      <point x="342" y="381"/>
      <point x="237" y="327"/>
      <point x="237" y="259" type="curve" smooth="yes"/>
      <point x="237" y="236"/>
      <point x="242" y="217"/>
      <point x="250" y="200" type="curve"/>
      <point x="237" y="198"/>
      <point x="226" y="197"/>
    </contour>
  </outline>
</glyph>
<glyph name="uni1914" format="2">
  <advance width="647"/>
  <unicode hex="1914"/>
  <outline>
    <contour>
      <point x="499" y="0" type="curve"/>
      <point x="574" y="34" type="line"/>
      <point x="574" y="576" type="line"/>
      <point x="50" y="576" type="line"/>
      <point x="25" y="504" type="line"/>
      <point x="368" y="504" type="line"/>
      <point x="24" y="185" type="line"/>
      <point x="34" y="153" type="line"/>
      <point x="213" y="153"/>
      <point x="363" y="107"/>
    </contour>
    <contour>
      <point x="494" y="80" type="line"/>
      <point x="424" y="141"/>
      <point x="299" y="214"/>
      <point x="146" y="226" type="curve"/>
      <point x="446" y="504" type="line"/>
      <point x="494" y="504" type="line"/>
    </contour>
  </outline>
</glyph>
<glyph name="uni1915" format="2">
  <advance width="604"/>
  <unicode hex="1915"/>
  <outline>
    <contour>
      <point x="248" y="-7" type="curve" smooth="yes"/>
      <point x="320" y="-7"/>
      <point x="381" y="13"/>
      <point x="428" y="44" type="curve"/>
      <point x="463" y="24"/>
      <point x="502" y="6"/>
      <point x="546" y="-7" type="curve"/>
      <point x="564" y="34" type="line"/>
      <point x="529" y="42"/>
      <point x="498" y="58"/>
      <point x="468" y="77" type="curve"/>
      <point x="516" y="124"/>
      <point x="542" y="184"/>
      <point x="542" y="242" type="curve" smooth="yes"/>
      <point x="542" y="339"/>
      <point x="447" y="407"/>
      <point x="332" y="407" type="curve"/>
      <point x="473" y="542" type="line"/>
      <point x="480" y="576" type="line"/>
      <point x="76" y="576" type="line"/>
      <point x="51" y="504" type="line"/>
      <point x="369" y="504" type="line"/>
      <point x="242" y="389" type="line"/>
      <point x="237" y="360" type="line"/>
      <point x="266" y="362"/>
      <point x="284" y="363"/>
      <point x="296" y="363" type="curve" smooth="yes"/>
      <point x="422" y="363"/>
      <point x="460" y="290"/>
      <point x="460" y="234" type="curve" smooth="yes"/>
      <point x="460" y="183"/>
      <point x="443" y="145"/>
      <point x="416" y="118" type="curve"/>
      <point x="340" y="182"/>
      <point x="271" y="257"/>
      <point x="169" y="257" type="curve" smooth="yes"/>
      <point x="102" y="257"/>
      <point x="39" y="210"/>
      <point x="39" y="136" type="curve" smooth="yes"/>
      <point x="39" y="33"/>
      <point x="149" y="-7"/>
    </contour>
    <contour>
      <point x="259" y="65" type="curve" smooth="yes"/>
      <point x="170" y="65"/>
      <point x="89" y="88"/>
      <point x="89" y="136" type="curve" smooth="yes"/>
      <point x="89" y="172"/>
      <point x="129" y="185"/>
      <point x="161" y="185" type="curve" smooth="yes"/>
      <point x="229" y="185"/>
      <point x="289" y="136"/>
      <point x="365" y="84" type="curve"/>
      <point x="333" y="71"/>
      <point x="297" y="65"/>
    </contour>
  </outline>
</glyph>
<glyph name="uni1916" format="2">
  <advance width="625"/>
  <unicode hex="1916"/>
  <outline>
    <contour>
      <point x="33" y="-5" type="curve"/>
      <point x="140" y="20" type="line"/>
      <point x="173" y="92"/>
      <point x="229" y="178"/>
      <point x="300" y="267" type="curve"/>
      <point x="528" y="-5" type="line"/>
      <point x="586" y="10" type="line"/>
      <point x="336" y="311" type="line"/>
      <point x="402" y="389"/>
      <point x="478" y="468"/>
      <point x="561" y="542" type="curve"/>
      <point x="568" y="576" type="line"/>
      <point x="54" y="576" type="line"/>
      <point x="29" y="504" type="line"/>
      <point x="457" y="504" type="line"/>
      <point x="343" y="406"/>
      <point x="135" y="210"/>
    </contour>
  </outline>
</glyph>
<glyph name="uni1917" format="2">
  <advance width="656"/>
  <unicode hex="1917"/>
  <outline>
    <contour>
      <point x="502" y="-5" type="line"/>
      <point x="583" y="20" type="line"/>
      <point x="583" y="581" type="line"/>
      <point x="572" y="583" type="line"/>
      <point x="505" y="541"/>
      <point x="395" y="510"/>
      <point x="291" y="510" type="curve" smooth="yes"/>
      <point x="212" y="510"/>
      <point x="147" y="541"/>
      <point x="105" y="581" type="curve"/>
      <point x="42" y="538" type="line"/>
      <point x="28" y="504"/>
      <point x="24" y="476"/>
      <point x="24" y="438" type="curve" smooth="yes"/>
      <point x="24" y="280"/>
      <point x="141" y="215"/>
      <point x="248" y="215" type="curve" smooth="yes"/>
      <point x="340" y="215"/>
      <point x="427" y="267"/>
      <point x="475" y="310" type="curve"/>
      <point x="452" y="339" type="line"/>
      <point x="410" y="308"/>
      <point x="340" y="288"/>
      <point x="273" y="288" type="curve" smooth="yes"/>
      <point x="199" y="288"/>
      <point x="106" y="319"/>
      <point x="106" y="459" type="curve" smooth="yes"/>
      <point x="106" y="469"/>
      <point x="107" y="481"/>
      <point x="108" y="493" type="curve"/>
      <point x="149" y="466"/>
      <point x="194" y="438"/>
      <point x="291" y="438" type="curve" smooth="yes"/>
      <point x="368" y="438"/>
      <point x="460" y="479"/>
      <point x="502" y="504" type="curve"/>
    </contour>
  </outline>
</glyph>
<glyph name="uni1918" format="2">
  <advance width="661"/>
  <unicode hex="1918"/>
  <outline>
    <contour>
      <point x="507" y="-5" type="line"/>
      <point x="587" y="20" type="line"/>
      <point x="587" y="581" type="line"/>
      <point x="507" y="557" type="line"/>
      <point x="507" y="270" type="line"/>
      <point x="460" y="237"/>
      <point x="402" y="227"/>
      <point x="363" y="227" type="curve" smooth="yes"/>
      <point x="304" y="227"/>
      <point x="263" y="260"/>
      <point x="263" y="335" type="curve" smooth="yes"/>
      <point x="263" y="581" type="line"/>
      <point x="181" y="557" type="line"/>
      <point x="0" y="218" type="line"/>
      <point x="17" y="158" type="line"/>
      <point x="181" y="459" type="line"/>
      <point x="181" y="325" type="line" smooth="yes"/>
      <point x="181" y="238"/>
      <point x="229" y="179"/>
      <point x="338" y="179" type="curve" smooth="yes"/>
      <point x="400" y="179"/>
      <point x="474" y="204"/>
      <point x="507" y="228" type="curve"/>
    </contour>
  </outline>
</glyph>
<glyph name="uni1919" format="2">
  <advance width="636"/>
  <unicode hex="1919"/>
  <outline>
    <contour>
      <point x="256" y="-7" type="curve" smooth="yes"/>
      <point x="355" y="-7"/>
      <point x="453" y="65"/>
      <point x="453" y="272" type="curve" smooth="yes"/>
      <point x="453" y="504" type="line"/>
      <point x="587" y="504" type="line"/>
      <point x="611" y="576" type="line"/>
      <point x="397" y="576" type="line"/>
      <point x="373" y="504" type="line"/>
      <point x="373" y="230" type="line" smooth="yes"/>
      <point x="373" y="70"/>
      <point x="319" y="41"/>
      <point x="256" y="41" type="curve" smooth="yes"/>
      <point x="202" y="41"/>
      <point x="153" y="71"/>
      <point x="153" y="212" type="curve" smooth="yes"/>
      <point x="153" y="581" type="line"/>
      <point x="73" y="557" type="line"/>
      <point x="73" y="218" type="line" smooth="yes"/>
      <point x="73" y="60"/>
      <point x="149" y="-7"/>
    </contour>
  </outline>
</glyph>
<glyph name="uni191A" format="2">
  <advance width="521"/>
  <unicode hex="191A"/>
  <outline>
    <contour>
      <point x="368" y="-5" type="line"/>
      <point x="448" y="20" type="line"/>
      <point x="448" y="581" type="line"/>
      <point x="375" y="550" type="line"/>
      <point x="341" y="572"/>
      <point x="298" y="583"/>
      <point x="260" y="583" type="curve" smooth="yes"/>
      <point x="193" y="583"/>
      <point x="39" y="488"/>
      <point x="39" y="347" type="curve" smooth="yes"/>
      <point x="39" y="223"/>
      <point x="125" y="169"/>
      <point x="206" y="169" type="curve" smooth="yes"/>
      <point x="280" y="169"/>
      <point x="334" y="213"/>
      <point x="368" y="273" type="curve"/>
    </contour>
    <contour>
      <point x="229" y="241" type="curve" smooth="yes"/>
      <point x="160" y="241"/>
      <point x="121" y="291"/>
      <point x="121" y="367" type="curve" smooth="yes"/>
      <point x="121" y="443"/>
      <point x="149" y="511"/>
      <point x="229" y="511" type="curve" smooth="yes"/>
      <point x="313" y="511"/>
      <point x="348" y="468"/>
      <point x="367" y="445" type="curve"/>
      <point x="367" y="393" type="line" smooth="yes"/>
      <point x="367" y="278"/>
      <point x="296" y="241"/>
    </contour>
  </outline>
</glyph>
<glyph name="uni191B" format="2">
  <advance width="631"/>
  <unicode hex="191B"/>
  <outline>
    <contour>
      <point x="478" y="-5" type="line"/>
      <point x="558" y="20" type="line"/>
      <point x="558" y="576" type="line"/>
      <point x="228" y="576" type="line" smooth="yes"/>
      <point x="131" y="576"/>
      <point x="39" y="438"/>
      <point x="39" y="342" type="curve" smooth="yes"/>
      <point x="39" y="208"/>
      <point x="129" y="169"/>
      <point x="203" y="169" type="curve" smooth="yes"/>
      <point x="326" y="169"/>
      <point x="396" y="294"/>
      <point x="396" y="416" type="curve" smooth="yes"/>
      <point x="396" y="437"/>
      <point x="395" y="480"/>
      <point x="377" y="504" type="curve"/>
      <point x="478" y="504" type="line"/>
    </contour>
    <contour>
      <point x="212" y="241" type="curve" smooth="yes"/>
      <point x="174" y="241"/>
      <point x="121" y="272"/>
      <point x="121" y="360" type="curve" smooth="yes"/>
      <point x="121" y="436"/>
      <point x="144" y="504"/>
      <point x="201" y="504" type="curve" smooth="yes"/>
      <point x="293" y="504" type="line"/>
      <point x="310" y="484"/>
      <point x="321" y="431"/>
      <point x="321" y="391" type="curve" smooth="yes"/>
      <point x="321" y="313"/>
      <point x="293" y="241"/>
    </contour>
  </outline>
</glyph>
<glyph name="uni191C" format="2">
  <advance width="659"/>
  <unicode hex="191C"/>
  <outline>
    <contour>
      <point x="339" y="-7" type="curve" smooth="yes"/>
      <point x="493" y="-7"/>
      <point x="596" y="100"/>
      <point x="629" y="146" type="curve"/>
      <point x="602" y="171" type="line"/>
      <point x="507" y="83"/>
      <point x="428" y="65"/>
      <point x="337" y="65" type="curve" smooth="yes"/>
      <point x="206" y="65"/>
      <point x="123" y="148"/>
      <point x="123" y="277" type="curve" smooth="yes"/>
      <point x="123" y="411"/>
      <point x="201" y="491"/>
      <point x="262" y="504" type="curve"/>
      <point x="470" y="504" type="line"/>
      <point x="277" y="328" type="line"/>
      <point x="266" y="275" type="line"/>
      <point x="294" y="276"/>
      <point x="300" y="278"/>
      <point x="325" y="278" type="curve" smooth="yes"/>
      <point x="446" y="278"/>
      <point x="513" y="252"/>
      <point x="547" y="228" type="curve"/>
      <point x="583" y="300" type="line"/>
      <point x="538" y="325"/>
      <point x="431" y="346"/>
      <point x="367" y="346" type="curve"/>
      <point x="574" y="542" type="line"/>
      <point x="581" y="576" type="line"/>
      <point x="336" y="576" type="line"/>
      <point x="169" y="554"/>
      <point x="39" y="413"/>
      <point x="39" y="268" type="curve" smooth="yes"/>
      <point x="39" y="96"/>
      <point x="152" y="-7"/>
    </contour>
  </outline>
</glyph>
<glyph name="uni191D" format="2">
  <advance width="615"/>
  <unicode hex="191D"/>
  <outline>
    <contour>
      <point x="559" y="504" type="line"/>
      <point x="583" y="576" type="line"/>
      <point x="49" y="576" type="line"/>
      <point x="24" y="504" type="line"/>
      <point x="159" y="504" type="line"/>
      <point x="159" y="190" type="line"/>
      <point x="239" y="215" type="line"/>
      <point x="239" y="238" type="line"/>
      <point x="251" y="350"/>
      <point x="300" y="372"/>
      <point x="355" y="372" type="curve" smooth="yes"/>
      <point x="410" y="372"/>
      <point x="451" y="341"/>
      <point x="451" y="201" type="curve" smooth="yes"/>
      <point x="451" y="-5" type="line"/>
      <point x="531" y="20" type="line"/>
      <point x="531" y="194" type="line" smooth="yes"/>
      <point x="531" y="353"/>
      <point x="463" y="420"/>
      <point x="355" y="420" type="curve" smooth="yes"/>
      <point x="314" y="420"/>
      <point x="273" y="407"/>
      <point x="239" y="378" type="curve"/>
      <point x="239" y="504" type="line"/>
    </contour>
  </outline>
</glyph>
<glyph name="uni191E" format="2">
  <advance width="601"/>
  <unicode hex="191E"/>
  <outline>
    <contour>
      <point x="544" y="504" type="line"/>
      <point x="569" y="576" type="line"/>
      <point x="49" y="576" type="line"/>
      <point x="24" y="504" type="line"/>
      <point x="149" y="504" type="line"/>
      <point x="149" y="348" type="line"/>
      <point x="418" y="348" type="line"/>
      <point x="418" y="217" type="line" smooth="yes"/>
      <point x="418" y="147"/>
      <point x="380" y="106"/>
      <point x="333" y="84" type="curve"/>
      <point x="314" y="168"/>
      <point x="273" y="246"/>
      <point x="184" y="246" type="curve" smooth="yes"/>
      <point x="125" y="246"/>
      <point x="75" y="196"/>
      <point x="75" y="122" type="curve" smooth="yes"/>
      <point x="75" y="25"/>
      <point x="162" y="-7"/>
      <point x="251" y="-7" type="curve" smooth="yes"/>
      <point x="268" y="-7"/>
      <point x="284" y="-6"/>
      <point x="299" y="-3" type="curve"/>
      <point x="304" y="-42"/>
      <point x="305" y="-78"/>
      <point x="305" y="-100" type="curve"/>
      <point x="351" y="-100" type="line"/>
      <point x="351" y="-76"/>
      <point x="350" y="-36"/>
      <point x="346" y="9" type="curve"/>
      <point x="444" y="46"/>
      <point x="498" y="140"/>
      <point x="498" y="232" type="curve" smooth="yes"/>
      <point x="498" y="420" type="line"/>
      <point x="229" y="420" type="line"/>
      <point x="229" y="504" type="line"/>
    </contour>
    <contour>
      <point x="237" y="65" type="curve" smooth="yes"/>
      <point x="163" y="65"/>
      <point x="125" y="97"/>
      <point x="125" y="126" type="curve" smooth="yes"/>
      <point x="125" y="151"/>
      <point x="141" y="174"/>
      <point x="177" y="174" type="curve" smooth="yes"/>
      <point x="235" y="174"/>
      <point x="267" y="126"/>
      <point x="284" y="69" type="curve"/>
      <point x="268" y="66"/>
      <point x="252" y="65"/>
    </contour>
  </outline>
</glyph>
<glyph name="uni1920" format="2">
  <unicode hex="1920"/>
  <outline>
    <contour>
      <point x="-504" y="764" type="curve" smooth="yes"/>
      <point x="-504" y="703"/>
      <point x="-456" y="654"/>
      <point x="-395" y="654" type="curve" smooth="yes"/>
      <point x="-63" y="654" type="line"/>
      <point x="-39" y="722" type="line"/>
      <point x="-291" y="722" type="line"/>
      <point x="-284" y="737"/>
      <point x="-281" y="754"/>
      <point x="-281" y="773" type="curve" smooth="yes"/>
      <point x="-281" y="833"/>
      <point x="-327" y="875"/>
      <point x="-390" y="875" type="curve" smooth="yes"/>
      <point x="-452" y="875"/>
      <point x="-504" y="825"/>
    </contour>
    <contour>
      <point x="-432" y="775" type="curve" smooth="yes"/>
      <point x="-432" y="801"/>
      <point x="-411" y="823"/>
      <point x="-386" y="823" type="curve" smooth="yes"/>
      <point x="-354" y="823"/>
      <point x="-333" y="803"/>
      <point x="-333" y="774" type="curve" smooth="yes"/>
      <point x="-333" y="742"/>
      <point x="-353" y="722"/>
      <point x="-382" y="722" type="curve" smooth="yes"/>
      <point x="-415" y="722"/>
      <point x="-432" y="743"/>
    </contour>
  </outline>
</glyph>
<glyph name="uni1921" format="2">
  <unicode hex="1921"/>
  <outline>
    <contour>
      <point x="-34" y="504" type="curve"/>
      <point x="138" y="504" type="line"/>
      <point x="163" y="576" type="line"/>
      <point x="50" y="576" type="line"/>
      <point x="59" y="591"/>
      <point x="71" y="634"/>
      <point x="71" y="684" type="curve" smooth="yes"/>
      <point x="71" y="787"/>
      <point x="-13" y="838"/>
      <point x="-138" y="838" type="curve" smooth="yes"/>
      <point x="-295" y="838"/>
      <point x="-346" y="765"/>
      <point x="-346" y="691" type="curve" smooth="yes"/>
      <point x="-346" y="665"/>
      <point x="-337" y="638"/>
      <point x="-322" y="615" type="curve"/>
      <point x="-272" y="628" type="line"/>
      <point x="-287" y="645"/>
      <point x="-296" y="667"/>
      <point x="-296" y="689" type="curve" smooth="yes"/>
      <point x="-296" y="724"/>
      <point x="-267" y="766"/>
      <point x="-138" y="766" type="curve" smooth="yes"/>
      <point x="20" y="766"/>
      <point x="21" y="705"/>
      <point x="21" y="674" type="curve" smooth="yes"/>
      <point x="21" y="623"/>
      <point x="0" y="565"/>
    </contour>
  </outline>
</glyph>
<glyph name="uni1922" format="2">
  <unicode hex="1922"/>
  <outline>
    <contour>
      <point x="-448" y="-246" type="curve" smooth="yes"/>
      <point x="-305" y="-246"/>
      <point x="-169" y="-153"/>
      <point x="-78" y="5" type="curve"/>
      <point x="-117" y="0" type="line"/>
      <point x="-213" y="-123"/>
      <point x="-332" y="-166"/>
      <point x="-426" y="-174" type="curve"/>
      <point x="-422" y="-163"/>
      <point x="-419" y="-148"/>
      <point x="-419" y="-136" type="curve" smooth="yes"/>
      <point x="-419" y="-86"/>
      <point x="-460" y="-49"/>
      <point x="-506" y="-49" type="curve" smooth="yes"/>
      <point x="-557" y="-49"/>
      <point x="-599" y="-86"/>
      <point x="-599" y="-140" type="curve" smooth="yes"/>
      <point x="-599" y="-227"/>
      <point x="-512" y="-246"/>
    </contour>
    <contour>
      <point x="-509" y="-176" type="curve" smooth="yes"/>
      <point x="-529" y="-176"/>
      <point x="-546" y="-159"/>
      <point x="-546" y="-139" type="curve" smooth="yes"/>
      <point x="-546" y="-118"/>
      <point x="-529" y="-101"/>
      <point x="-509" y="-101" type="curve" smooth="yes"/>
      <point x="-488" y="-101"/>
      <point x="-472" y="-118"/>
      <point x="-472" y="-139" type="curve" smooth="yes"/>
      <point x="-472" y="-159"/>
      <point x="-488" y="-176"/>
    </contour>
  </outline>
</glyph>
<glyph name="uni1923" format="2">
  <advance width="286"/>
  <unicode hex="1923"/>
  <outline>
    <contour>
      <point x="34" y="-7" type="line"/>
      <point x="164" y="144"/>
      <point x="262" y="301"/>
      <point x="262" y="423" type="curve" smooth="yes"/>
      <point x="262" y="502"/>
      <point x="232" y="583"/>
      <point x="125" y="583" type="curve" smooth="yes"/>
      <point x="59" y="583"/>
      <point x="13" y="533"/>
      <point x="13" y="470" type="curve" smooth="yes"/>
      <point x="13" y="414"/>
      <point x="59" y="363"/>
      <point x="121" y="363" type="curve" smooth="yes"/>
      <point x="135" y="363"/>
      <point x="153" y="366"/>
      <point x="167" y="371" type="curve"/>
      <point x="159" y="274"/>
      <point x="106" y="144"/>
      <point x="5" y="10" type="curve"/>
    </contour>
    <contour>
      <point x="123" y="416" type="curve" smooth="yes"/>
      <point x="91" y="416"/>
      <point x="65" y="441"/>
      <point x="65" y="473" type="curve" smooth="yes"/>
      <point x="65" y="505"/>
      <point x="91" y="531"/>
      <point x="123" y="531" type="curve" smooth="yes"/>
      <point x="155" y="531"/>
      <point x="181" y="505"/>
      <point x="181" y="473" type="curve" smooth="yes"/>
      <point x="181" y="441"/>
      <point x="155" y="416"/>
    </contour>
  </outline>
</glyph>
<glyph name="uni1924" format="2">
  <advance width="561"/>
  <unicode hex="1924"/>
  <outline>
    <contour>
      <point x="197" y="-7" type="line"/>
      <point x="397" y="132"/>
      <point x="537" y="276"/>
      <point x="537" y="423" type="curve" smooth="yes"/>
      <point x="537" y="502"/>
      <point x="507" y="583"/>
      <point x="400" y="583" type="curve" smooth="yes"/>
      <point x="333" y="583"/>
      <point x="288" y="533"/>
      <point x="288" y="470" type="curve" smooth="yes"/>
      <point x="288" y="409"/>
      <point x="334" y="361"/>
      <point x="396" y="361" type="curve" smooth="yes"/>
      <point x="410" y="361"/>
      <point x="428" y="364"/>
      <point x="441" y="369" type="curve"/>
      <point x="434" y="271"/>
      <point x="315" y="132"/>
      <point x="173" y="18" type="curve"/>
    </contour>
    <contour>
      <point x="34" y="-7" type="line"/>
      <point x="164" y="144"/>
      <point x="262" y="301"/>
      <point x="262" y="423" type="curve" smooth="yes"/>
      <point x="262" y="502"/>
      <point x="232" y="583"/>
      <point x="125" y="583" type="curve" smooth="yes"/>
      <point x="59" y="583"/>
      <point x="13" y="533"/>
      <point x="13" y="470" type="curve" smooth="yes"/>
      <point x="13" y="409"/>
      <point x="59" y="361"/>
      <point x="121" y="361" type="curve" smooth="yes"/>
      <point x="135" y="361"/>
      <point x="153" y="364"/>
      <point x="167" y="369" type="curve"/>
      <point x="159" y="271"/>
      <point x="106" y="144"/>
      <point x="5" y="10" type="curve"/>
    </contour>
    <contour>
      <point x="121" y="409" type="curve" smooth="yes"/>
      <point x="85" y="409"/>
      <point x="63" y="439"/>
      <point x="63" y="472" type="curve" smooth="yes"/>
      <point x="63" y="505"/>
      <point x="86" y="536"/>
      <point x="122" y="536" type="curve" smooth="yes"/>
      <point x="158" y="536"/>
      <point x="180" y="506"/>
      <point x="180" y="471" type="curve" smooth="yes"/>
      <point x="180" y="437"/>
      <point x="157" y="409"/>
    </contour>
    <contour>
      <point x="396" y="409" type="curve" smooth="yes"/>
      <point x="360" y="409"/>
      <point x="338" y="439"/>
      <point x="338" y="472" type="curve" smooth="yes"/>
      <point x="338" y="505"/>
      <point x="361" y="536"/>
      <point x="397" y="536" type="curve" smooth="yes"/>
      <point x="433" y="536"/>
      <point x="455" y="506"/>
      <point x="455" y="471" type="curve" smooth="yes"/>
      <point x="455" y="437"/>
      <point x="432" y="409"/>
    </contour>
  </outline>
</glyph>
<glyph name="uni1925" format="2">
  <advance width="286"/>
  <unicode hex="1925"/>
  <outline>
    <contour>
      <point x="34" y="-7" type="line"/>
      <point x="164" y="144"/>
      <point x="262" y="301"/>
      <point x="262" y="423" type="curve" smooth="yes"/>
      <point x="262" y="502"/>
      <point x="232" y="583"/>
      <point x="125" y="583" type="curve" smooth="yes"/>
      <point x="59" y="583"/>
      <point x="13" y="533"/>
      <point x="13" y="470" type="curve" smooth="yes"/>
      <point x="13" y="409"/>
      <point x="59" y="361"/>
      <point x="121" y="361" type="curve" smooth="yes"/>
      <point x="135" y="361"/>
      <point x="153" y="364"/>
      <point x="167" y="369" type="curve"/>
      <point x="159" y="271"/>
      <point x="106" y="144"/>
      <point x="5" y="10" type="curve"/>
    </contour>
    <contour>
      <point x="-367" y="722" type="curve" smooth="yes"/>
      <point x="-399" y="722"/>
      <point x="-418" y="743"/>
      <point x="-418" y="775" type="curve" smooth="yes"/>
      <point x="-418" y="795"/>
      <point x="-401" y="823"/>
      <point x="-372" y="823" type="curve" smooth="yes"/>
      <point x="-345" y="823"/>
      <point x="-319" y="807"/>
      <point x="-319" y="774" type="curve" smooth="yes"/>
      <point x="-319" y="742"/>
      <point x="-338" y="722"/>
    </contour>
    <contour>
      <point x="-380" y="654" type="curve" smooth="yes"/>
      <point x="-48" y="654" type="line"/>
      <point x="-24" y="722" type="line"/>
      <point x="-276" y="722" type="line"/>
      <point x="-271" y="734"/>
      <point x="-267" y="758"/>
      <point x="-267" y="773" type="curve" smooth="yes"/>
      <point x="-267" y="835"/>
      <point x="-314" y="875"/>
      <point x="-375" y="875" type="curve" smooth="yes"/>
      <point x="-436" y="875"/>
      <point x="-489" y="825"/>
      <point x="-489" y="764" type="curve" smooth="yes"/>
      <point x="-489" y="703"/>
      <point x="-441" y="654"/>
    </contour>
    <contour>
      <point x="121" y="409" type="curve" smooth="yes"/>
      <point x="85" y="409"/>
      <point x="63" y="439"/>
      <point x="63" y="472" type="curve" smooth="yes"/>
      <point x="63" y="505"/>
      <point x="86" y="536"/>
      <point x="122" y="536" type="curve" smooth="yes"/>
      <point x="158" y="536"/>
      <point x="180" y="506"/>
      <point x="180" y="471" type="curve" smooth="yes"/>
      <point x="180" y="437"/>
      <point x="157" y="409"/>
    </contour>
  </outline>
</glyph>
<glyph name="uni1927" format="2">
  <unicode hex="1927"/>
  <outline>
    <contour>
      <point x="-188" y="649" type="line"/>
      <point x="-155" y="708" type="line"/>
      <point x="-459" y="871" type="line"/>
      <point x="-486" y="823" type="line"/>
    </contour>
  </outline>
</glyph>
<glyph name="uni1928" format="2">
  <unicode hex="1928"/>
  <outline>
    <contour>
      <point x="-368" y="654" type="curve"/>
      <point x="-295" y="654" type="line"/>
      <point x="-247" y="691"/>
      <point x="-154" y="771"/>
      <point x="-33" y="836" type="curve"/>
      <point x="-51" y="869" type="line"/>
      <point x="-118" y="839"/>
      <point x="-215" y="786"/>
      <point x="-303" y="730" type="curve"/>
      <point x="-324" y="827"/>
      <point x="-383" y="861"/>
      <point x="-443" y="861" type="curve" smooth="yes"/>
      <point x="-469" y="861"/>
      <point x="-496" y="853"/>
      <point x="-519" y="837" type="curve"/>
      <point x="-505" y="795" type="line"/>
      <point x="-489" y="810"/>
      <point x="-467" y="813"/>
      <point x="-445" y="813" type="curve" smooth="yes"/>
      <point x="-410" y="813"/>
      <point x="-368" y="783"/>
    </contour>
  </outline>
</glyph>
<glyph name="uni1929" format="2">
  <advance width="358"/>
  <unicode hex="1929"/>
  <outline>
    <contour>
      <point x="127" y="-37" type="curve" smooth="yes"/>
      <point x="231" y="-37"/>
      <point x="258" y="129"/>
      <point x="334" y="165" type="curve"/>
      <point x="329" y="202" type="line"/>
      <point x="236" y="179"/>
      <point x="211" y="36"/>
      <point x="149" y="36" type="curve" smooth="yes"/>
      <point x="108" y="36"/>
      <point x="124" y="153"/>
      <point x="71" y="153" type="curve" smooth="yes"/>
      <point x="25" y="153"/>
      <point x="-55" y="91"/>
      <point x="-97" y="41" type="curve"/>
      <point x="-67" y="10" type="line"/>
      <point x="-38" y="38"/>
      <point x="1" y="81"/>
      <point x="22" y="81" type="curve" smooth="yes"/>
      <point x="70" y="81"/>
      <point x="35" y="-37"/>
    </contour>
  </outline>
</glyph>
<glyph name="uni192A" format="2">
  <unicode hex="192A"/>
  <outline>
    <contour>
      <point x="131" y="-202" type="curve"/>
      <point x="170" y="-131" type="line"/>
      <point x="126" y="-116"/>
      <point x="66" y="-64"/>
      <point x="55" y="23" type="curve"/>
      <point x="36" y="32" type="line"/>
      <point x="-53" y="-64"/>
      <point x="-108" y="-122"/>
      <point x="-132" y="-146" type="curve"/>
      <point x="-103" y="-176" type="line"/>
      <point x="-80" y="-155"/>
      <point x="-32" y="-104"/>
      <point x="2" y="-62" type="curve"/>
      <point x="25" y="-133"/>
      <point x="77" y="-184"/>
    </contour>
  </outline>
</glyph>
<glyph name="uni192B" format="2">
  <advance width="410"/>
  <unicode hex="192B"/>
  <outline>
    <contour>
      <point x="280" y="-5" type="line"/>
      <point x="361" y="20" type="line"/>
      <point x="361" y="320" type="line"/>
      <point x="280" y="295" type="line"/>
      <point x="280" y="126" type="line"/>
      <point x="242" y="103"/>
      <point x="192" y="84"/>
      <point x="146" y="84" type="curve" smooth="yes"/>
      <point x="124" y="84"/>
      <point x="121" y="94"/>
      <point x="121" y="109" type="curve" smooth="yes"/>
      <point x="121" y="123"/>
      <point x="134" y="146"/>
      <point x="147" y="171" type="curve" smooth="yes"/>
      <point x="161" y="198"/>
      <point x="175" y="226"/>
      <point x="175" y="250" type="curve" smooth="yes"/>
      <point x="175" y="280"/>
      <point x="164" y="313"/>
      <point x="110" y="313" type="curve" smooth="yes"/>
      <point x="64" y="313"/>
      <point x="-16" y="258"/>
      <point x="-58" y="208" type="curve"/>
      <point x="-28" y="177" type="line"/>
      <point x="1" y="204"/>
      <point x="57" y="248"/>
      <point x="77" y="248" type="curve" smooth="yes"/>
      <point x="101" y="248"/>
      <point x="104" y="229"/>
      <point x="104" y="219" type="curve" smooth="yes"/>
      <point x="104" y="206"/>
      <point x="94" y="188"/>
      <point x="83" y="169" type="curve" smooth="yes"/>
      <point x="68" y="142"/>
      <point x="50" y="113"/>
      <point x="50" y="91" type="curve" smooth="yes"/>
      <point x="50" y="53"/>
      <point x="85" y="32"/>
      <point x="128" y="32" type="curve" smooth="yes"/>
      <point x="186" y="32"/>
      <point x="242" y="63"/>
      <point x="280" y="85" type="curve"/>
    </contour>
  </outline>
</glyph>
<glyph name="uni1930" format="2">
  <advance width="547"/>
  <unicode hex="1930"/>
  <outline>
    <contour>
      <point x="244" y="214" type="curve" smooth="yes"/>
      <point x="353" y="214"/>
      <point x="445" y="284"/>
      <point x="474" y="308" type="curve"/>
      <point x="455" y="333" type="line"/>
      <point x="404" y="307"/>
      <point x="328" y="287"/>
      <point x="256" y="287" type="curve" smooth="yes"/>
      <point x="195" y="287"/>
      <point x="119" y="304"/>
      <point x="119" y="391" type="curve" smooth="yes"/>
      <point x="119" y="426"/>
      <point x="143" y="467"/>
      <point x="206" y="504" type="curve"/>
      <point x="474" y="504" type="line"/>
      <point x="498" y="576" type="line"/>
      <point x="44" y="576" type="line"/>
      <point x="20" y="504" type="line"/>
      <point x="137" y="504" type="line"/>
      <point x="84" y="474"/>
      <point x="37" y="428"/>
      <point x="37" y="371" type="curve" smooth="yes"/>
      <point x="37" y="255"/>
      <point x="150" y="214"/>
    </contour>
  </outline>
</glyph>
<glyph name="uni1931" format="2">
  <advance width="264"/>
  <unicode hex="1931"/>
  <outline>
    <contour>
      <point x="119" y="-7" type="curve" smooth="yes"/>
      <point x="196" y="-7"/>
      <point x="240" y="54"/>
      <point x="240" y="119" type="curve" smooth="yes"/>
      <point x="240" y="185"/>
      <point x="197" y="232"/>
      <point x="125" y="232" type="curve" smooth="yes"/>
      <point x="49" y="232"/>
      <point x="0" y="178"/>
      <point x="0" y="112" type="curve" smooth="yes"/>
      <point x="0" y="47"/>
      <point x="46" y="-7"/>
    </contour>
    <contour>
      <point x="129" y="55" type="curve" smooth="yes"/>
      <point x="91" y="55"/>
      <point x="65" y="79"/>
      <point x="65" y="116" type="curve" smooth="yes"/>
      <point x="65" y="156"/>
      <point x="87" y="183"/>
      <point x="125" y="183" type="curve" smooth="yes"/>
      <point x="159" y="183"/>
      <point x="187" y="161"/>
      <point x="187" y="122" type="curve" smooth="yes"/>
      <point x="187" y="84"/>
      <point x="167" y="55"/>
    </contour>
  </outline>
</glyph>
<glyph name="uni1932" format="2">
  <unicode hex="1932"/>
  <outline>
    <contour>
      <point x="-189" y="-289" type="curve" smooth="yes"/>
      <point x="-112" y="-289"/>
      <point x="-68" y="-228"/>
      <point x="-68" y="-163" type="curve" smooth="yes"/>
      <point x="-68" y="-96"/>
      <point x="-111" y="-49"/>
      <point x="-183" y="-49" type="curve" smooth="yes"/>
      <point x="-259" y="-49"/>
      <point x="-308" y="-103"/>
      <point x="-308" y="-169" type="curve" smooth="yes"/>
      <point x="-308" y="-234"/>
      <point x="-262" y="-289"/>
    </contour>
    <contour>
      <point x="-179" y="-227" type="curve" smooth="yes"/>
      <point x="-217" y="-227"/>
      <point x="-243" y="-202"/>
      <point x="-243" y="-165" type="curve" smooth="yes"/>
      <point x="-243" y="-125"/>
      <point x="-220" y="-99"/>
      <point x="-182" y="-99" type="curve" smooth="yes"/>
      <point x="-148" y="-99"/>
      <point x="-121" y="-120"/>
      <point x="-121" y="-159" type="curve" smooth="yes"/>
      <point x="-121" y="-196"/>
      <point x="-141" y="-227"/>
    </contour>
  </outline>
</glyph>
<glyph name="uni1933" format="2">
  <advance width="270"/>
  <unicode hex="1933"/>
  <outline>
    <contour>
      <point x="-99" y="-170" type="line"/>
      <point x="-66" y="-127"/>
      <point x="-13" y="-80"/>
      <point x="69" y="-80" type="curve" smooth="yes"/>
      <point x="119" y="-80"/>
      <point x="160" y="-100"/>
      <point x="183" y="-155" type="curve"/>
      <point x="246" y="-91" type="line"/>
      <point x="212" y="-35"/>
      <point x="158" y="-7"/>
      <point x="94" y="-7" type="curve" smooth="yes"/>
      <point x="-18" y="-7"/>
      <point x="-91" y="-100"/>
      <point x="-122" y="-146" type="curve"/>
    </contour>
  </outline>
</glyph>
<glyph name="uni1934" format="2">
  <advance width="477"/>
  <unicode hex="1934"/>
  <outline>
    <contour>
      <point x="274" y="208" type="curve" smooth="yes"/>
      <point x="373" y="208"/>
      <point x="452" y="256"/>
      <point x="452" y="350" type="curve" smooth="yes"/>
      <point x="452" y="421"/>
      <point x="400" y="465"/>
      <point x="336" y="465" type="curve" smooth="yes"/>
      <point x="254" y="465"/>
      <point x="211" y="414"/>
      <point x="211" y="354" type="curve" smooth="yes"/>
      <point x="211" y="328"/>
      <point x="219" y="302"/>
      <point x="232" y="281" type="curve"/>
      <point x="29" y="301"/>
      <point x="46" y="497"/>
      <point x="-9" y="583" type="curve"/>
      <point x="-35" y="535" type="line"/>
      <point x="-1" y="492"/>
      <point x="-23" y="208"/>
    </contour>
    <contour>
      <point x="324" y="291" type="curve" smooth="yes"/>
      <point x="289" y="291"/>
      <point x="261" y="319"/>
      <point x="261" y="354" type="curve" smooth="yes"/>
      <point x="261" y="389"/>
      <point x="289" y="417"/>
      <point x="324" y="417" type="curve" smooth="yes"/>
      <point x="359" y="417"/>
      <point x="388" y="389"/>
      <point x="388" y="354" type="curve" smooth="yes"/>
      <point x="388" y="319"/>
      <point x="359" y="291"/>
    </contour>
  </outline>
</glyph>
<glyph name="uni1935" format="2">
  <advance width="514"/>
  <unicode hex="1935"/>
  <outline>
    <contour>
      <point x="360" y="-5" type="line"/>
      <point x="441" y="20" type="line"/>
      <point x="441" y="581" type="line"/>
      <point x="360" y="557" type="line"/>
      <point x="360" y="270" type="line"/>
      <point x="313" y="237"/>
      <point x="256" y="227"/>
      <point x="216" y="227" type="curve" smooth="yes"/>
      <point x="157" y="227"/>
      <point x="126" y="260"/>
      <point x="126" y="335" type="curve" smooth="yes"/>
      <point x="126" y="407" type="line" smooth="yes"/>
      <point x="126" y="527"/>
      <point x="107" y="576"/>
      <point x="8" y="576" type="curve" smooth="yes"/>
      <point x="-15" y="576" type="line"/>
      <point x="-39" y="504" type="line"/>
      <point x="0" y="504" type="line" smooth="yes"/>
      <point x="22" y="504"/>
      <point x="44" y="490"/>
      <point x="44" y="427" type="curve" smooth="yes"/>
      <point x="44" y="325" type="line" smooth="yes"/>
      <point x="44" y="238"/>
      <point x="83" y="179"/>
      <point x="192" y="179" type="curve" smooth="yes"/>
      <point x="254" y="179"/>
      <point x="328" y="204"/>
      <point x="360" y="228" type="curve"/>
    </contour>
  </outline>
</glyph>
<glyph name="uni1936" format="2">
  <advance width="503"/>
  <unicode hex="1936"/>
  <outline>
    <contour>
      <point x="196" y="-5" type="line"/>
      <point x="276" y="20" type="line"/>
      <point x="276" y="261" type="line"/>
      <point x="354" y="274"/>
      <point x="454" y="330"/>
      <point x="454" y="453" type="curve" smooth="yes"/>
      <point x="454" y="559"/>
      <point x="397" y="584"/>
      <point x="350" y="584" type="curve" smooth="yes"/>
      <point x="278" y="584"/>
      <point x="196" y="494"/>
      <point x="196" y="376" type="curve" smooth="yes"/>
      <point x="196" y="333" type="line"/>
      <point x="129" y="338"/>
      <point x="92" y="358"/>
      <point x="92" y="416" type="curve" smooth="yes"/>
      <point x="92" y="435" type="line" smooth="yes"/>
      <point x="92" y="525"/>
      <point x="81" y="576"/>
      <point x="8" y="576" type="curve" smooth="yes"/>
      <point x="-15" y="576" type="line"/>
      <point x="-39" y="504" type="line"/>
      <point x="0" y="504" type="line" smooth="yes"/>
      <point x="22" y="504"/>
      <point x="44" y="492"/>
      <point x="44" y="440" type="curve" smooth="yes"/>
      <point x="44" y="417" type="line" smooth="yes"/>
      <point x="44" y="303"/>
      <point x="100" y="267"/>
      <point x="196" y="260" type="curve"/>
    </contour>
    <contour>
      <point x="276" y="333" type="curve"/>
      <point x="276" y="431" type="line"/>
      <point x="276" y="498"/>
      <point x="304" y="512"/>
      <point x="323" y="512" type="curve" smooth="yes"/>
      <point x="347" y="512"/>
      <point x="372" y="490"/>
      <point x="372" y="448" type="curve" smooth="yes"/>
      <point x="372" y="373"/>
      <point x="325" y="342"/>
    </contour>
  </outline>
</glyph>
<glyph name="uni1937" format="2">
  <advance width="111"/>
  <unicode hex="1937"/>
  <outline>
    <contour>
      <point x="68" y="-235" type="line"/>
      <point x="111" y="-203" type="line"/>
      <point x="-37" y="10" type="line"/>
      <point x="-98" y="-37" type="line"/>
    </contour>
  </outline>
</glyph>
<glyph name="uni1938" format="2">
  <advance width="324"/>
  <unicode hex="1938"/>
  <outline>
    <contour>
      <point x="134" y="252" type="curve" smooth="yes"/>
      <point x="219" y="252"/>
      <point x="299" y="336"/>
      <point x="299" y="454" type="curve" smooth="yes"/>
      <point x="299" y="581" type="line"/>
      <point x="219" y="557" type="line"/>
      <point x="219" y="414" type="line" smooth="yes"/>
      <point x="219" y="323"/>
      <point x="187" y="300"/>
      <point x="143" y="300" type="curve" smooth="yes"/>
      <point x="100" y="300"/>
      <point x="80" y="324"/>
      <point x="80" y="415" type="curve" smooth="yes"/>
      <point x="80" y="581" type="line"/>
      <point x="0" y="557" type="line"/>
      <point x="0" y="382" type="line" smooth="yes"/>
      <point x="0" y="288"/>
      <point x="50" y="252"/>
    </contour>
  </outline>
</glyph>
<glyph name="uni1939" format="2">
  <unicode hex="1939"/>
  <outline>
    <contour>
      <point x="-55" y="-235" type="line"/>
      <point x="111" y="-37" type="line"/>
      <point x="50" y="10" type="line"/>
      <point x="-98" y="-203" type="line"/>
    </contour>
  </outline>
</glyph>
<glyph name="uni193A" format="2">
  <unicode hex="193A"/>
  <outline>
    <contour>
      <point x="-54" y="732" type="curve" smooth="yes"/>
      <point x="-24" y="732"/>
      <point x="0" y="757"/>
      <point x="0" y="787" type="curve" smooth="yes"/>
      <point x="0" y="816"/>
      <point x="-24" y="841"/>
      <point x="-54" y="841" type="curve" smooth="yes"/>
      <point x="-84" y="841"/>
      <point x="-108" y="816"/>
      <point x="-108" y="787" type="curve" smooth="yes"/>
      <point x="-108" y="757"/>
      <point x="-84" y="732"/>
    </contour>
    <contour>
      <point x="-232" y="732" type="curve" smooth="yes"/>
      <point x="-202" y="732"/>
      <point x="-178" y="757"/>
      <point x="-178" y="787" type="curve" smooth="yes"/>
      <point x="-178" y="816"/>
      <point x="-202" y="841"/>
      <point x="-232" y="841" type="curve" smooth="yes"/>
      <point x="-262" y="841"/>
      <point x="-286" y="816"/>
      <point x="-286" y="787" type="curve" smooth="yes"/>
      <point x="-286" y="757"/>
      <point x="-262" y="732"/>
    </contour>
  </outline>
</glyph>
<glyph name="uni193B" format="2">
  <unicode hex="193B"/>
  <outline>
    <contour>
      <point x="-567" y="-148" type="line"/>
      <point x="-49" y="-148" type="line"/>
      <point x="-49" y="-85" type="line"/>
      <point x="-567" y="-85" type="line"/>
    </contour>
  </outline>
</glyph>
<glyph name="uni1940" format="2">
  <advance width="550"/>
  <unicode hex="1940"/>
  <outline>
    <contour>
      <point x="268" y="-7" type="curve" smooth="yes"/>
      <point x="409" y="-7"/>
      <point x="511" y="68"/>
      <point x="511" y="176" type="curve" smooth="yes"/>
      <point x="511" y="226"/>
      <point x="477" y="299"/>
      <point x="387" y="299" type="curve" smooth="yes"/>
      <point x="311" y="299"/>
      <point x="263" y="238"/>
      <point x="263" y="171" type="curve" smooth="yes"/>
      <point x="263" y="130"/>
      <point x="287" y="93"/>
      <point x="318" y="67" type="curve"/>
      <point x="304" y="65"/>
      <point x="288" y="65"/>
      <point x="272" y="65" type="curve" smooth="yes"/>
      <point x="208" y="65"/>
      <point x="121" y="106"/>
      <point x="121" y="250" type="curve" smooth="yes"/>
      <point x="121" y="364"/>
      <point x="167" y="467"/>
      <point x="293" y="555" type="curve"/>
      <point x="271" y="583" type="line"/>
      <point x="108" y="477"/>
      <point x="39" y="348"/>
      <point x="39" y="236" type="curve" smooth="yes"/>
      <point x="39" y="77"/>
      <point x="145" y="-7"/>
    </contour>
    <contour>
      <point x="383" y="86" type="curve"/>
      <point x="348" y="105"/>
      <point x="321" y="135"/>
      <point x="321" y="171" type="curve" smooth="yes"/>
      <point x="321" y="200"/>
      <point x="340" y="227"/>
      <point x="376" y="227" type="curve" smooth="yes"/>
      <point x="416" y="227"/>
      <point x="429" y="199"/>
      <point x="429" y="175" type="curve" smooth="yes"/>
      <point x="429" y="129"/>
      <point x="411" y="102"/>
    </contour>
  </outline>
</glyph>
<glyph name="uni1944" format="2">
  <advance width="440"/>
  <unicode hex="1944"/>
  <outline>
    <contour>
      <point x="272" y="0" type="line"/>
      <point x="352" y="34" type="line"/>
      <point x="352" y="411" type="line" smooth="yes"/>
      <point x="352" y="555"/>
      <point x="306" y="654"/>
      <point x="184" y="654" type="curve" smooth="yes"/>
      <point x="98" y="654"/>
      <point x="59" y="592"/>
      <point x="59" y="536" type="curve" smooth="yes"/>
      <point x="59" y="499"/>
      <point x="71" y="460"/>
      <point x="111" y="430" type="curve"/>
      <point x="140" y="473" type="line"/>
      <point x="125" y="490"/>
      <point x="111" y="505"/>
      <point x="111" y="537" type="curve" smooth="yes"/>
      <point x="111" y="598"/>
      <point x="164" y="606"/>
      <point x="179" y="606" type="curve" smooth="yes"/>
      <point x="271" y="606"/>
      <point x="272" y="495"/>
      <point x="272" y="417" type="curve" smooth="yes"/>
    </contour>
    <contour>
      <point x="312" y="-163" type="curve" smooth="yes"/>
      <point x="339" y="-163"/>
      <point x="362" y="-137"/>
      <point x="362" y="-105" type="curve" smooth="yes"/>
      <point x="362" y="-74"/>
      <point x="339" y="-49"/>
      <point x="312" y="-49" type="curve" smooth="yes"/>
      <point x="284" y="-49"/>
      <point x="262" y="-74"/>
      <point x="262" y="-105" type="curve" smooth="yes"/>
      <point x="262" y="-137"/>
      <point x="284" y="-163"/>
    </contour>
  </outline>
</glyph>
<glyph name="uni1945" format="2">
  <advance width="480"/>
  <unicode hex="1945"/>
  <outline>
    <contour>
      <point x="162" y="0" type="line"/>
      <point x="242" y="34" type="line"/>
      <point x="242" y="354" type="line" smooth="yes"/>
      <point x="242" y="487"/>
      <point x="249" y="606"/>
      <point x="320" y="606" type="curve" smooth="yes"/>
      <point x="356" y="606"/>
      <point x="379" y="576"/>
      <point x="379" y="542" type="curve" smooth="yes"/>
      <point x="379" y="522"/>
      <point x="371" y="502"/>
      <point x="355" y="491" type="curve"/>
      <point x="387" y="451" type="line"/>
      <point x="414" y="471"/>
      <point x="432" y="503"/>
      <point x="432" y="541" type="curve" smooth="yes"/>
      <point x="432" y="604"/>
      <point x="389" y="654"/>
      <point x="317" y="654" type="curve" smooth="yes"/>
      <point x="224" y="654"/>
      <point x="188" y="596"/>
      <point x="177" y="534" type="curve"/>
      <point x="154" y="582"/>
      <point x="126" y="618"/>
      <point x="81" y="654" type="curve"/>
      <point x="59" y="633" type="line"/>
      <point x="159" y="540"/>
      <point x="162" y="375"/>
      <point x="162" y="256" type="curve" smooth="yes"/>
    </contour>
    <contour>
      <point x="202" y="-163" type="curve" smooth="yes"/>
      <point x="229" y="-163"/>
      <point x="252" y="-137"/>
      <point x="252" y="-105" type="curve" smooth="yes"/>
      <point x="252" y="-74"/>
      <point x="229" y="-49"/>
      <point x="202" y="-49" type="curve" smooth="yes"/>
      <point x="174" y="-49"/>
      <point x="152" y="-74"/>
      <point x="152" y="-105" type="curve" smooth="yes"/>
      <point x="152" y="-137"/>
      <point x="174" y="-163"/>
    </contour>
  </outline>
</glyph>
<glyph name="uni1946" format="2">
  <advance width="549"/>
  <unicode hex="1946"/>
  <outline>
    <contour>
      <point x="265" y="-7" type="curve" smooth="yes"/>
      <point x="396" y="-7"/>
      <point x="510" y="141"/>
      <point x="510" y="298" type="curve" smooth="yes"/>
      <point x="510" y="461"/>
      <point x="441" y="583"/>
      <point x="285" y="583" type="curve" smooth="yes"/>
      <point x="165" y="583"/>
      <point x="39" y="447"/>
      <point x="39" y="268" type="curve" smooth="yes"/>
      <point x="39" y="104"/>
      <point x="118" y="-7"/>
    </contour>
    <contour>
      <point x="280" y="54" type="curve" smooth="yes"/>
      <point x="167" y="54"/>
      <point x="121" y="161"/>
      <point x="121" y="288" type="curve" smooth="yes"/>
      <point x="121" y="455"/>
      <point x="183" y="522"/>
      <point x="270" y="522" type="curve" smooth="yes"/>
      <point x="358" y="522"/>
      <point x="428" y="447"/>
      <point x="428" y="288" type="curve" smooth="yes"/>
      <point x="428" y="161"/>
      <point x="394" y="54"/>
    </contour>
  </outline>
</glyph>
<glyph name="uni1947" format="2">
  <advance width="499"/>
  <unicode hex="1947"/>
  <outline>
    <contour>
      <point x="285" y="-7" type="curve" smooth="yes"/>
      <point x="403" y="-7"/>
      <point x="460" y="67"/>
      <point x="460" y="138" type="curve" smooth="yes"/>
      <point x="460" y="196"/>
      <point x="413" y="256"/>
      <point x="339" y="256" type="curve" smooth="yes"/>
      <point x="273" y="256"/>
      <point x="213" y="211"/>
      <point x="213" y="125" type="curve" smooth="yes"/>
      <point x="213" y="95"/>
      <point x="224" y="72"/>
      <point x="234" y="56" type="curve"/>
      <point x="156" y="88"/>
      <point x="144" y="184"/>
      <point x="144" y="267" type="curve" smooth="yes"/>
      <point x="144" y="576" type="line"/>
      <point x="63" y="542" type="line"/>
      <point x="63" y="244" type="line" smooth="yes"/>
      <point x="63" y="64"/>
      <point x="150" y="-7"/>
    </contour>
    <contour>
      <point x="322" y="57" type="curve" smooth="yes"/>
      <point x="289" y="57"/>
      <point x="263" y="87"/>
      <point x="263" y="125" type="curve" smooth="yes"/>
      <point x="263" y="162"/>
      <point x="289" y="192"/>
      <point x="322" y="192" type="curve" smooth="yes"/>
      <point x="354" y="192"/>
      <point x="381" y="162"/>
      <point x="381" y="125" type="curve" smooth="yes"/>
      <point x="381" y="87"/>
      <point x="354" y="57"/>
    </contour>
  </outline>
</glyph>
<glyph name="uni1948" format="2">
  <advance width="497"/>
  <unicode hex="1948"/>
  <outline>
    <contour>
      <point x="20" y="-5" type="curve"/>
      <point x="120" y="20" type="line"/>
      <point x="133" y="113"/>
      <point x="162" y="277"/>
      <point x="228" y="462" type="curve"/>
      <point x="275" y="298"/>
      <point x="334" y="136"/>
      <point x="387" y="-5" type="curve"/>
      <point x="478" y="15" type="line"/>
      <point x="443" y="89"/>
      <point x="345" y="335"/>
      <point x="268" y="581" type="curve"/>
      <point x="211" y="520" type="line"/>
      <point x="127" y="335"/>
      <point x="62" y="145"/>
    </contour>
  </outline>
</glyph>
<glyph name="uni1949" format="2">
  <advance width="461"/>
  <unicode hex="1949"/>
  <outline>
    <contour>
      <point x="188" y="-7" type="curve" smooth="yes"/>
      <point x="254" y="-7"/>
      <point x="422" y="71"/>
      <point x="422" y="195" type="curve" smooth="yes"/>
      <point x="422" y="380"/>
      <point x="121" y="292"/>
      <point x="121" y="436" type="curve" smooth="yes"/>
      <point x="121" y="468"/>
      <point x="141" y="516"/>
      <point x="220" y="516" type="curve" smooth="yes"/>
      <point x="276" y="516"/>
      <point x="311" y="497"/>
      <point x="333" y="478" type="curve"/>
      <point x="403" y="536" type="line"/>
      <point x="368" y="566"/>
      <point x="320" y="583"/>
      <point x="251" y="583" type="curve" smooth="yes"/>
      <point x="173" y="583"/>
      <point x="39" y="504"/>
      <point x="39" y="403" type="curve" smooth="yes"/>
      <point x="39" y="238"/>
      <point x="340" y="315"/>
      <point x="340" y="175" type="curve" smooth="yes"/>
      <point x="340" y="99"/>
      <point x="298" y="60"/>
      <point x="219" y="60" type="curve" smooth="yes"/>
      <point x="135" y="60"/>
      <point x="100" y="103"/>
      <point x="81" y="126" type="curve"/>
      <point x="46" y="42" type="line"/>
      <point x="82" y="10"/>
      <point x="141" y="-7"/>
    </contour>
  </outline>
</glyph>
<glyph name="uni194A" format="2">
  <advance width="500"/>
  <unicode hex="194A"/>
  <outline>
    <contour>
      <point x="26" y="-5" type="line"/>
      <point x="91" y="0" type="line"/>
      <point x="140" y="80"/>
      <point x="192" y="161"/>
      <point x="246" y="242" type="curve"/>
      <point x="320" y="138"/>
      <point x="374" y="49"/>
      <point x="407" y="-5" type="curve"/>
      <point x="480" y="51" type="line"/>
      <point x="441" y="112"/>
      <point x="372" y="214"/>
      <point x="296" y="318" type="curve"/>
      <point x="354" y="404"/>
      <point x="414" y="489"/>
      <point x="474" y="573" type="curve"/>
      <point x="468" y="580" type="line"/>
      <point x="404" y="576" type="line"/>
      <point x="359" y="500"/>
      <point x="314" y="428"/>
      <point x="268" y="357" type="curve"/>
      <point x="207" y="440"/>
      <point x="143" y="521"/>
      <point x="90" y="581" type="curve"/>
      <point x="20" y="525" type="line"/>
      <point x="96" y="440"/>
      <point x="162" y="356"/>
      <point x="218" y="280" type="curve"/>
      <point x="154" y="183"/>
      <point x="89" y="90"/>
      <point x="23" y="1" type="curve"/>
    </contour>
  </outline>
</glyph>
<glyph name="uni194B" format="2">
  <advance width="487"/>
  <unicode hex="194B"/>
  <outline>
    <contour>
      <point x="243" y="529" type="curve"/>
      <point x="236" y="518"/>
      <point x="229" y="498"/>
      <point x="229" y="469" type="curve" smooth="yes"/>
      <point x="229" y="413"/>
      <point x="264" y="368"/>
      <point x="330" y="368" type="curve" smooth="yes"/>
      <point x="406" y="368"/>
      <point x="437" y="427"/>
      <point x="437" y="473" type="curve" smooth="yes"/>
      <point x="437" y="526"/>
      <point x="402" y="583"/>
      <point x="310" y="583" type="curve" smooth="yes"/>
      <point x="210" y="583"/>
      <point x="39" y="456"/>
      <point x="39" y="260" type="curve" smooth="yes"/>
      <point x="39" y="71"/>
      <point x="155" y="-7"/>
      <point x="280" y="-7" type="curve" smooth="yes"/>
      <point x="390" y="-7"/>
      <point x="448" y="63"/>
      <point x="448" y="116" type="curve" smooth="yes"/>
      <point x="448" y="164"/>
      <point x="419" y="213"/>
      <point x="353" y="213" type="curve" smooth="yes"/>
      <point x="286" y="213"/>
      <point x="239" y="171"/>
      <point x="239" y="107" type="curve" smooth="yes"/>
      <point x="239" y="86"/>
      <point x="246" y="66"/>
      <point x="253" y="55" type="curve"/>
      <point x="162" y="89"/>
      <point x="121" y="149"/>
      <point x="121" y="274" type="curve" smooth="yes"/>
      <point x="121" y="381"/>
      <point x="150" y="482"/>
    </contour>
    <contour>
      <point x="313" y="57" type="curve"/>
      <point x="299" y="61"/>
      <point x="289" y="82"/>
      <point x="289" y="105" type="curve" smooth="yes"/>
      <point x="289" y="140"/>
      <point x="309" y="155"/>
      <point x="333" y="155" type="curve" smooth="yes"/>
      <point x="358" y="155"/>
      <point x="378" y="145"/>
      <point x="378" y="110" type="curve" smooth="yes"/>
      <point x="378" y="86"/>
      <point x="354" y="57"/>
    </contour>
    <contour>
      <point x="304" y="524" type="curve"/>
      <point x="344" y="524"/>
      <point x="368" y="495"/>
      <point x="368" y="471" type="curve" smooth="yes"/>
      <point x="368" y="437"/>
      <point x="348" y="426"/>
      <point x="324" y="426" type="curve" smooth="yes"/>
      <point x="299" y="426"/>
      <point x="279" y="444"/>
      <point x="279" y="479" type="curve" smooth="yes"/>
      <point x="279" y="502"/>
      <point x="289" y="520"/>
    </contour>
  </outline>
</glyph>
<glyph name="uni194C" format="2">
  <advance width="492"/>
  <unicode hex="194C"/>
  <outline>
    <contour>
      <point x="269" y="-64" type="curve"/>
      <point x="337" y="-39" type="line"/>
      <point x="320" y="-9"/>
      <point x="301" y="35"/>
      <point x="288" y="84" type="curve"/>
      <point x="382" y="89"/>
      <point x="453" y="135"/>
      <point x="453" y="220" type="curve" smooth="yes"/>
      <point x="453" y="277"/>
      <point x="414" y="318"/>
      <point x="347" y="318" type="curve" smooth="yes"/>
      <point x="275" y="318"/>
      <point x="214" y="256"/>
      <point x="214" y="192" type="curve" smooth="yes"/>
      <point x="214" y="176"/>
      <point x="214" y="160"/>
      <point x="216" y="144" type="curve"/>
      <point x="156" y="170"/>
      <point x="121" y="239"/>
      <point x="121" y="326" type="curve" smooth="yes"/>
      <point x="121" y="452"/>
      <point x="186" y="504"/>
      <point x="243" y="504" type="curve" smooth="yes"/>
      <point x="386" y="504" type="line"/>
      <point x="411" y="576" type="line"/>
      <point x="332" y="576" type="line" smooth="yes"/>
      <point x="156" y="576"/>
      <point x="39" y="480"/>
      <point x="39" y="317" type="curve" smooth="yes"/>
      <point x="39" y="194"/>
      <point x="115" y="107"/>
      <point x="224" y="88" type="curve"/>
      <point x="236" y="19"/>
      <point x="257" y="-43"/>
    </contour>
    <contour>
      <point x="277" y="132" type="curve"/>
      <point x="273" y="154"/>
      <point x="271" y="177"/>
      <point x="271" y="199" type="curve" smooth="yes"/>
      <point x="271" y="242"/>
      <point x="295" y="270"/>
      <point x="327" y="270" type="curve" smooth="yes"/>
      <point x="359" y="270"/>
      <point x="381" y="250"/>
      <point x="381" y="209" type="curve" smooth="yes"/>
      <point x="381" y="182"/>
      <point x="372" y="133"/>
    </contour>
  </outline>
</glyph>
<glyph name="uni194D" format="2">
  <advance width="492"/>
  <unicode hex="194D"/>
  <outline>
    <contour>
      <point x="217" y="-7" type="curve" smooth="yes"/>
      <point x="284" y="-7"/>
      <point x="452" y="72"/>
      <point x="452" y="170" type="curve" smooth="yes"/>
      <point x="452" y="252"/>
      <point x="371" y="290"/>
      <point x="291" y="326" type="curve"/>
      <point x="368" y="384"/>
      <point x="443" y="445"/>
      <point x="453" y="513" type="curve"/>
      <point x="375" y="491" type="line"/>
      <point x="354" y="439"/>
      <point x="306" y="390"/>
      <point x="253" y="344" type="curve"/>
      <point x="192" y="374"/>
      <point x="141" y="407"/>
      <point x="141" y="465" type="curve" smooth="yes"/>
      <point x="141" y="497"/>
      <point x="166" y="541"/>
      <point x="245" y="541" type="curve" smooth="yes"/>
      <point x="251" y="541"/>
      <point x="257" y="541"/>
      <point x="263" y="540" type="curve"/>
      <point x="308" y="584" type="line"/>
      <point x="299" y="583"/>
      <point x="291" y="583"/>
      <point x="281" y="583" type="curve" smooth="yes"/>
      <point x="203" y="583"/>
      <point x="59" y="533"/>
      <point x="59" y="433" type="curve" smooth="yes"/>
      <point x="59" y="360"/>
      <point x="118" y="320"/>
      <point x="185" y="288" type="curve"/>
      <point x="108" y="226"/>
      <point x="39" y="169"/>
      <point x="39" y="118" type="curve" smooth="yes"/>
      <point x="39" y="34"/>
      <point x="117" y="-7"/>
    </contour>
    <contour>
      <point x="249" y="60" type="curve" smooth="yes"/>
      <point x="192" y="60"/>
      <point x="121" y="70"/>
      <point x="121" y="139" type="curve" smooth="yes"/>
      <point x="121" y="184"/>
      <point x="165" y="227"/>
      <point x="220" y="271" type="curve"/>
      <point x="296" y="236"/>
      <point x="370" y="208"/>
      <point x="370" y="150" type="curve" smooth="yes"/>
      <point x="370" y="98"/>
      <point x="328" y="60"/>
    </contour>
  </outline>
</glyph>
<glyph name="uni194E" format="2">
  <advance width="497"/>
  <unicode hex="194E"/>
  <outline>
    <contour>
      <point x="229" y="-5" type="curve"/>
      <point x="286" y="56" type="line"/>
      <point x="370" y="241"/>
      <point x="435" y="431"/>
      <point x="478" y="581" type="curve"/>
      <point x="377" y="557" type="line"/>
      <point x="364" y="463"/>
      <point x="335" y="299"/>
      <point x="270" y="113" type="curve"/>
      <point x="222" y="278"/>
      <point x="163" y="439"/>
      <point x="110" y="581" type="curve"/>
      <point x="20" y="562" type="line"/>
      <point x="54" y="487"/>
      <point x="152" y="241"/>
    </contour>
  </outline>
</glyph>
<glyph name="uni194F" format="2">
  <advance width="492"/>
  <unicode hex="194F"/>
  <outline>
    <contour>
      <point x="230" y="-5" type="curve"/>
      <point x="330" y="15" type="line"/>
      <point x="350" y="148"/>
      <point x="404" y="352"/>
      <point x="482" y="576" type="curve"/>
      <point x="102" y="576" type="line"/>
      <point x="29" y="504" type="line"/>
      <point x="57" y="438"/>
      <point x="96" y="334"/>
      <point x="138" y="214" type="curve"/>
      <point x="221" y="261" type="line"/>
      <point x="242" y="334"/>
      <point x="275" y="424"/>
      <point x="303" y="504" type="curve"/>
      <point x="416" y="504" type="line"/>
      <point x="335" y="323"/>
      <point x="272" y="141"/>
    </contour>
    <contour>
      <point x="185" y="326" type="curve"/>
      <point x="164" y="387"/>
      <point x="143" y="447"/>
      <point x="121" y="504" type="curve"/>
      <point x="260" y="504" type="line"/>
      <point x="233" y="444"/>
      <point x="208" y="384"/>
    </contour>
  </outline>
</glyph>
<glyph name="uni25CC" format="2">
  <advance width="721"/>
  <unicode hex="25CC"/>
  <outline>
    <contour>
      <point x="597" y="402" type="curve" smooth="yes"/>
      <point x="623" y="402"/>
      <point x="638" y="416"/>
      <point x="638" y="442" type="curve" smooth="yes"/>
      <point x="638" y="469"/>
      <point x="623" y="482"/>
      <point x="597" y="482" type="curve" smooth="yes"/>
      <point x="571" y="482"/>
      <point x="559" y="469"/>
      <point x="559" y="442" type="curve" smooth="yes"/>
      <point x="559" y="416"/>
      <point x="571" y="402"/>
    </contour>
    <contour>
      <point x="223" y="27" type="curve" smooth="yes"/>
      <point x="249" y="27"/>
      <point x="263" y="41"/>
      <point x="263" y="67" type="curve" smooth="yes"/>
      <point x="263" y="94"/>
      <point x="249" y="107"/>
      <point x="223" y="107" type="curve" smooth="yes"/>
      <point x="196" y="107"/>
      <point x="184" y="94"/>
      <point x="184" y="67" type="curve" smooth="yes"/>
      <point x="184" y="41"/>
      <point x="196" y="27"/>
    </contour>
    <contour>
      <point x="122" y="130" type="curve" smooth="yes"/>
      <point x="147" y="130"/>
      <point x="162" y="144"/>
      <point x="162" y="170" type="curve" smooth="yes"/>
      <point x="162" y="197"/>
      <point x="147" y="209"/>
      <point x="122" y="209" type="curve" smooth="yes"/>
      <point x="95" y="209"/>
      <point x="83" y="197"/>
      <point x="83" y="170" type="curve" smooth="yes"/>
      <point x="83" y="144"/>
      <point x="95" y="130"/>
    </contour>
    <contour>
      <point x="360" y="-7" type="curve" smooth="yes"/>
      <point x="386" y="-7"/>
      <point x="400" y="7"/>
      <point x="400" y="33" type="curve" smooth="yes"/>
      <point x="400" y="60"/>
      <point x="386" y="73"/>
      <point x="360" y="73" type="curve" smooth="yes"/>
      <point x="333" y="73"/>
      <point x="321" y="60"/>
      <point x="321" y="33" type="curve" smooth="yes"/>
      <point x="321" y="7"/>
      <point x="333" y="-7"/>
    </contour>
    <contour>
      <point x="87" y="266" type="curve" smooth="yes"/>
      <point x="113" y="266"/>
      <point x="128" y="280"/>
      <point x="128" y="306" type="curve" smooth="yes"/>
      <point x="128" y="333"/>
      <point x="113" y="346"/>
      <point x="87" y="346" type="curve" smooth="yes"/>
      <point x="61" y="346"/>
      <point x="49" y="333"/>
      <point x="49" y="306" type="curve" smooth="yes"/>
      <point x="49" y="280"/>
      <point x="61" y="266"/>
    </contour>
    <contour>
      <point x="496" y="27" type="curve" smooth="yes"/>
      <point x="521" y="27"/>
      <point x="536" y="41"/>
      <point x="536" y="67" type="curve" smooth="yes"/>
      <point x="536" y="94"/>
      <point x="521" y="107"/>
      <point x="496" y="107" type="curve" smooth="yes"/>
      <point x="469" y="107"/>
      <point x="457" y="94"/>
      <point x="457" y="67" type="curve" smooth="yes"/>
      <point x="457" y="41"/>
      <point x="469" y="27"/>
    </contour>
    <contour>
      <point x="122" y="403" type="curve" smooth="yes"/>
      <point x="147" y="403"/>
      <point x="162" y="417"/>
      <point x="162" y="443" type="curve" smooth="yes"/>
      <point x="162" y="470"/>
      <point x="147" y="482"/>
      <point x="122" y="482" type="curve" smooth="yes"/>
      <point x="95" y="482"/>
      <point x="83" y="470"/>
      <point x="83" y="443" type="curve" smooth="yes"/>
      <point x="83" y="417"/>
      <point x="95" y="403"/>
    </contour>
    <contour>
      <point x="597" y="129" type="curve" smooth="yes"/>
      <point x="623" y="129"/>
      <point x="637" y="143"/>
      <point x="637" y="169" type="curve" smooth="yes"/>
      <point x="637" y="196"/>
      <point x="623" y="208"/>
      <point x="597" y="208" type="curve" smooth="yes"/>
      <point x="570" y="208"/>
      <point x="558" y="196"/>
      <point x="558" y="169" type="curve" smooth="yes"/>
      <point x="558" y="143"/>
      <point x="570" y="129"/>
    </contour>
    <contour>
      <point x="223" y="504" type="curve" smooth="yes"/>
      <point x="249" y="504"/>
      <point x="264" y="518"/>
      <point x="264" y="544" type="curve" smooth="yes"/>
      <point x="264" y="571"/>
      <point x="249" y="583"/>
      <point x="223" y="583" type="curve" smooth="yes"/>
      <point x="197" y="583"/>
      <point x="185" y="571"/>
      <point x="185" y="544" type="curve" smooth="yes"/>
      <point x="185" y="518"/>
      <point x="197" y="504"/>
    </contour>
    <contour>
      <point x="632" y="266" type="curve" smooth="yes"/>
      <point x="658" y="266"/>
      <point x="672" y="279"/>
      <point x="672" y="306" type="curve" smooth="yes"/>
      <point x="672" y="333"/>
      <point x="658" y="345"/>
      <point x="632" y="345" type="curve" smooth="yes"/>
      <point x="605" y="345"/>
      <point x="593" y="333"/>
      <point x="593" y="306" type="curve" smooth="yes"/>
      <point x="593" y="279"/>
      <point x="605" y="266"/>
    </contour>
    <contour>
      <point x="362" y="542" type="curve" smooth="yes"/>
      <point x="388" y="542"/>
      <point x="403" y="556"/>
      <point x="403" y="583" type="curve" smooth="yes"/>
      <point x="403" y="609"/>
      <point x="388" y="622"/>
      <point x="362" y="622" type="curve" smooth="yes"/>
      <point x="336" y="622"/>
      <point x="324" y="609"/>
      <point x="324" y="583" type="curve" smooth="yes"/>
      <point x="324" y="556"/>
      <point x="336" y="542"/>
    </contour>
    <contour>
      <point x="496" y="504" type="curve" smooth="yes"/>
      <point x="521" y="504"/>
      <point x="536" y="518"/>
      <point x="536" y="544" type="curve" smooth="yes"/>
      <point x="536" y="571"/>
      <point x="521" y="584"/>
      <point x="496" y="584" type="curve" smooth="yes"/>
      <point x="469" y="584"/>
      <point x="457" y="571"/>
      <point x="457" y="544" type="curve" smooth="yes"/>
      <point x="457" y="518"/>
      <point x="469" y="504"/>
    </contour>
  </outline>
</glyph>
<glyph name="uni192A1922" format="2">
  <note>
uni192A1922
</note>
  <outline>
    <contour>
      <point x="-254" y="-132" type="line"/>
      <point x="-238" y="-124"/>
      <point x="-211" y="-107"/>
      <point x="-187" y="-91" type="curve" smooth="yes"/>
      <point x="-164" y="-75"/>
      <point x="-142" y="-59"/>
      <point x="-132" y="-50" type="curve"/>
      <point x="-124" y="-75"/>
      <point x="-100" y="-98"/>
      <point x="-72" y="-117" type="curve" smooth="yes"/>
      <point x="-44" y="-136"/>
      <point x="-12" y="-151"/>
      <point x="11" y="-159" type="curve"/>
      <point x="51" y="-92" type="line"/>
      <point x="26" y="-85"/>
      <point x="-7" y="-74"/>
      <point x="-36" y="-57" type="curve" smooth="yes"/>
      <point x="-64" y="-40"/>
      <point x="-88" y="-17"/>
      <point x="-92" y="14" type="curve"/>
      <point x="-112" y="23" type="line"/>
      <point x="-138" y="-5"/>
      <point x="-170" y="-31"/>
      <point x="-199" y="-51" type="curve" smooth="yes"/>
      <point x="-229" y="-71"/>
      <point x="-256" y="-87"/>
      <point x="-272" y="-95" type="curve"/>
    </contour>
    <contour>
      <point x="140" y="11" type="line"/>
      <point x="121" y="-43"/>
      <point x="99" y="-96"/>
      <point x="66" y="-138" type="curve" smooth="yes"/>
      <point x="34" y="-179"/>
      <point x="-9" y="-209"/>
      <point x="-72" y="-217" type="curve"/>
      <point x="-70" y="-211"/>
      <point x="-69" y="-204"/>
      <point x="-69" y="-198" type="curve" smooth="yes"/>
      <point x="-69" y="-156"/>
      <point x="-104" y="-111"/>
      <point x="-151" y="-111" type="curve" smooth="yes"/>
      <point x="-203" y="-111"/>
      <point x="-240" y="-148"/>
      <point x="-240" y="-198" type="curve" smooth="yes"/>
      <point x="-240" y="-256"/>
      <point x="-185" y="-293"/>
      <point x="-110" y="-293" type="curve" smooth="yes"/>
      <point x="-9" y="-293"/>
      <point x="67" y="-230"/>
      <point x="119" y="-135" type="curve" smooth="yes"/>
      <point x="145" y="-88"/>
      <point x="163" y="-38"/>
      <point x="176" y="15" type="curve"/>
    </contour>
    <contour>
      <point x="-124" y="-194" type="curve" smooth="yes"/>
      <point x="-124" y="-211"/>
      <point x="-137" y="-225"/>
      <point x="-155" y="-225" type="curve" smooth="yes"/>
      <point x="-172" y="-225"/>
      <point x="-186" y="-211"/>
      <point x="-186" y="-194" type="curve" smooth="yes"/>
      <point x="-186" y="-177"/>
      <point x="-172" y="-163"/>
      <point x="-155" y="-163" type="curve" smooth="yes"/>
      <point x="-137" y="-163"/>
      <point x="-124" y="-177"/>
    </contour>
  </outline>
</glyph>
